<svg version="1.1" id="Layer_1" xmlns="http://www.w3.org/2000/svg" xmlns:xlink="http://www.w3.org/1999/xlink" fill="#bcbcbc" x="0px" y="0px"
	 viewBox="0 0 66 66" style="enable-background:new 0 0 66 66;" xml:space="preserve">
	<path d="M163.5-192.6c0,0.2-0.2,0.4-0.4,0.4l-0.1,0c-0.7,0-1.3,0.4-1.5,1c-0.3,0.6-0.1,1.4,0.4,1.9
	c0.2,0.1,0.2,0.4,0,0.6c-0.4,0.4-0.8,0.8-1.2,1.2c-0.2,0.1-0.4,0.1-0.6,0c-0.4-0.5-1.2-0.7-1.9-0.4c-0.6,0.3-1.1,0.9-1,1.6
	c0,0.2-0.2,0.4-0.4,0.4c-0.3,0-0.5,0-0.8,0c-0.3,0-0.6,0-0.9-0.1c-0.2,0-0.4-0.2-0.4-0.4c0-0.7-0.4-1.4-1-1.6
	c-0.6-0.3-1.4-0.1-1.9,0.4c-0.1,0.2-0.4,0.2-0.6,0c-0.4-0.4-0.8-0.8-1.2-1.2c-0.1-0.2-0.1-0.4,0-0.6c0.5-0.5,0.7-1.2,0.4-1.9
	c-0.3-0.6-0.9-1-1.5-1c-0.2,0-0.5-0.2-0.5-0.4c-0.1-0.6-0.1-1.1,0-1.7c0-0.2,0.2-0.4,0.4-0.4c0.7,0,1.4-0.4,1.6-1
	c0.3-0.6,0.1-1.4-0.4-1.9c-0.2-0.1-0.2-0.4,0-0.6c0.4-0.4,0.8-0.8,1.2-1.2c0.2-0.1,0.4-0.1,0.6,0c0.4,0.5,1.2,0.7,1.9,0.4
	c0.6-0.3,1.1-0.9,1-1.6c0-0.2,0.2-0.4,0.4-0.4c0.6-0.1,1.1-0.1,1.7,0c0.2,0,0.4,0.2,0.4,0.4c0,0.7,0.4,1.4,1,1.6
	c0.6,0.3,1.4,0.1,1.9-0.4c0.1-0.2,0.4-0.2,0.6,0c0.4,0.4,0.8,0.8,1.2,1.2c0.1,0.2,0.1,0.4,0,0.6c-0.5,0.5-0.7,1.2-0.4,1.9
	c0.3,0.6,0.9,1,1.6,1c0.2,0,0.5,0.2,0.5,0.4C163.5-193.8,163.5-193.2,163.5-192.6z M156-196c-1.4,0-2.5,1.1-2.5,2.5
	c0,1.4,1.1,2.5,2.5,2.5c1.4,0,2.5-1.1,2.5-2.5C158.5-194.9,157.4-196,156-196z M65,66H30.3c-0.5,0-1-0.4-1-0.9l0-4
	c0-0.2,0.1-0.4,0.2-0.6l3.9-5v-2.3c0-0.5,0.4-0.9,1-0.9H61c0.5,0,1,0.4,1,0.9v2.3l3.9,5c0.1,0.2,0.2,0.4,0.2,0.6l0,4
	C66,65.6,65.6,66,65,66z M60,54.1H35.3v0.7H60V54.1z M60.5,56.7H34.8l-2.6,3.4h30.9L60.5,56.7z M64.1,62H31.2v2.1h32.9V62z
	 M60.9,30.9L50.2,41.5c-0.8,0.7-1.8,1.1-2.7,1.1c-0.9,0-1.8-0.3-2.5-1c-0.5-0.4-0.8-1-1-1.6c-0.2-0.7-0.8-1.3-1.6-1.5
	c-0.6-0.2-1.2-0.5-1.6-1c-1.1-1.2-1.3-2.9-0.6-4.3l-2.7-2.7L6.9,60.7c-0.8,0.8-1.8,1.2-2.8,1.2c-1,0-2.1-0.4-2.8-1.2
	c-1.6-1.6-1.6-4.1,0-5.6l30.5-30.2l-3.3-3.3c-0.6,0.3-1.2,0.4-1.8,0.4c-0.9,0-1.8-0.3-2.5-1c-0.5-0.4-0.8-1-1-1.6
	c-0.2-0.7-0.8-1.3-1.6-1.5c-0.6-0.2-1.2-0.5-1.6-1c-1.4-1.5-1.3-3.8,0.1-5.2L30.7,1.1C32.2-0.3,34.6-0.4,36,1c0.5,0.4,0.8,1,1,1.6
	c0.2,0.7,0.8,1.3,1.6,1.5c0.6,0.2,1.2,0.5,1.6,1c1.1,1.2,1.3,2.9,0.6,4.3L52.5,21c1.4-0.7,3.2-0.5,4.3,0.5c0.5,0.4,0.8,1,1,1.6
	c0.2,0.7,0.8,1.3,1.6,1.5c0.6,0.2,1.2,0.5,1.6,1C62.4,27.1,62.3,29.5,60.9,30.9z M2.5,56.4c-0.8,0.8-0.8,2.1,0,3
	c0.8,0.8,2.2,0.8,3,0l30.5-30.2l-3-3L2.5,56.4z M35.2,3.1c-0.1-0.3-0.3-0.6-0.5-0.8c-0.3-0.3-0.8-0.5-1.3-0.5c-0.5,0-1,0.2-1.4,0.6
	L21.4,13c-0.7,0.7-0.8,1.9-0.1,2.6c0.2,0.2,0.5,0.4,0.8,0.5c0.3,0.1,0.7,0.3,1,0.5L35.7,4.1C35.5,3.8,35.4,3.5,35.2,3.1z M38.8,6.4
	C38.6,6.2,38.3,6,38,5.9c-0.4-0.1-0.7-0.3-1-0.5L24.4,17.9c0.2,0.3,0.4,0.6,0.5,1c0.1,0.3,0.3,0.6,0.5,0.8c0.7,0.7,1.9,0.6,2.7-0.1
	L38.7,9C39.5,8.3,39.5,7.1,38.8,6.4z M39.6,10.9l-9.7,9.5l11.4,11.3l4.8-4.8l4.8-4.8L39.6,10.9z M56,23.7c-0.1-0.3-0.3-0.6-0.5-0.8
	c-0.3-0.3-0.8-0.5-1.3-0.5c-0.5,0-1,0.2-1.4,0.6l-5.3,5.3l-5.4,5.3c-0.7,0.7-0.8,1.9-0.1,2.6c0.2,0.2,0.5,0.4,0.8,0.5
	c0.3,0.1,0.7,0.3,1,0.5l12.6-12.5C56.3,24.4,56.1,24,56,23.7z M59.6,26.9c-0.2-0.2-0.5-0.4-0.8-0.5c-0.3-0.1-0.7-0.3-1-0.5
	L45.2,38.5c0.2,0.3,0.4,0.6,0.5,1c0.1,0.3,0.3,0.6,0.5,0.8c0.7,0.7,1.9,0.6,2.7-0.1l10.7-10.6C60.3,28.8,60.3,27.7,59.6,26.9z
	 M39.1,13.6c0.4-0.4,1-0.4,1.3,0l7.8,7.7c0.4,0.4,0.4,1,0,1.3c-0.2,0.2-0.4,0.3-0.7,0.3c-0.2,0-0.5-0.1-0.7-0.3l-7.8-7.7
	C38.7,14.6,38.7,14,39.1,13.6z"/>
</svg>
