<svg xmlns="http://www.w3.org/2000/svg" xmlns:xlink="http://www.w3.org/1999/xlink" preserveAspectRatio="xMidYMid" width="18.469" height="26" viewBox="0 0 18.469 26">
  <defs>
    <style>
      .cls-1 {
        fill: #373737;
        fill-rule: evenodd;
      }
    </style>
  </defs>
  <path d="M17.322,6.249 L13.007,6.249 L13.007,3.624 C13.007,1.625 11.312,-0.001 9.229,-0.001 C7.146,-0.001 5.452,1.625 5.452,3.624 L5.452,6.249 L1.137,6.249 L-0.006,25.999 L18.465,25.999 L17.322,6.249 ZM6.494,3.624 C6.494,2.176 7.721,0.999 9.229,0.999 C10.738,0.999 11.965,2.176 11.965,3.624 L11.965,6.249 L6.494,6.249 L6.494,3.624 ZM2.123,7.249 L5.452,7.249 L5.452,8.832 C5.452,9.108 5.685,9.332 5.973,9.332 C6.261,9.332 6.494,9.108 6.494,8.832 L6.494,7.249 L11.965,7.249 L11.965,8.832 C11.965,9.108 12.199,9.332 12.486,9.332 C12.774,9.332 13.007,9.108 13.007,8.832 L13.007,7.249 L16.336,7.249 L17.363,24.999 L1.095,24.999 L2.123,7.249 Z" class="cls-1"/>
</svg>
