<svg xmlns="http://www.w3.org/2000/svg"  preserveAspectRatio="xMidYMid" width="60" height="60" fill="#cbcbcb" viewBox="0 0 60 60">
  <path d="M30.000,60.000 C13.458,60.000 0.000,46.542 0.000,30.000 C0.000,13.458 13.458,-0.000 30.000,-0.000 C46.542,-0.000 60.000,13.458 60.000,30.000 C60.000,46.542 46.542,60.000 30.000,60.000 ZM30.000,2.000 C14.561,2.000 2.000,14.561 2.000,30.000 C2.000,45.439 14.561,58.000 30.000,58.000 C45.439,58.000 58.000,45.439 58.000,30.000 C58.000,14.561 45.439,2.000 30.000,2.000 ZM52.000,30.879 L51.000,30.879 C50.448,30.879 50.000,30.432 50.000,29.879 C50.000,29.326 50.448,28.879 51.000,28.879 L52.000,28.879 C52.552,28.879 53.000,29.326 53.000,29.879 C53.000,30.432 52.552,30.879 52.000,30.879 ZM45.556,46.435 C45.300,46.435 45.044,46.337 44.849,46.142 L44.142,45.435 C43.751,45.044 43.751,44.412 44.142,44.021 C44.533,43.630 45.165,43.630 45.556,44.021 L46.263,44.728 C46.654,45.119 46.654,45.751 46.263,46.142 C46.068,46.337 45.812,46.435 45.556,46.435 ZM45.556,15.736 C45.361,15.931 45.105,16.029 44.849,16.029 C44.593,16.029 44.337,15.931 44.142,15.736 C43.751,15.345 43.751,14.713 44.142,14.322 L44.849,13.615 C45.240,13.225 45.872,13.224 46.263,13.615 C46.654,14.006 46.654,14.638 46.263,15.029 L45.556,15.736 ZM30.000,33.879 C28.142,33.879 26.589,32.599 26.142,30.879 L19.000,30.879 C18.448,30.879 18.000,30.432 18.000,29.879 C18.000,29.326 18.448,28.879 19.000,28.879 L26.142,28.879 C26.506,27.480 27.601,26.385 29.000,26.021 L29.000,15.879 C29.000,15.326 29.448,14.879 30.000,14.879 C30.552,14.879 31.000,15.326 31.000,15.879 L31.000,26.021 C32.720,26.468 34.000,28.020 34.000,29.879 C34.000,32.085 32.206,33.879 30.000,33.879 ZM30.000,27.879 C28.897,27.879 28.000,28.776 28.000,29.879 C28.000,30.982 28.897,31.879 30.000,31.879 C31.103,31.879 32.000,30.982 32.000,29.879 C32.000,28.776 31.103,27.879 30.000,27.879 ZM30.000,9.879 C29.448,9.879 29.000,9.432 29.000,8.879 L29.000,7.879 C29.000,7.326 29.448,6.879 30.000,6.879 C30.552,6.879 31.000,7.326 31.000,7.879 L31.000,8.879 C31.000,9.432 30.552,9.879 30.000,9.879 ZM15.151,46.142 C14.956,46.337 14.700,46.435 14.444,46.435 C14.188,46.435 13.932,46.337 13.737,46.142 C13.346,45.751 13.346,45.119 13.737,44.728 L14.444,44.021 C14.834,43.631 15.467,43.630 15.858,44.021 C16.249,44.412 16.249,45.044 15.858,45.435 L15.151,46.142 ZM15.151,16.029 C14.895,16.029 14.639,15.931 14.444,15.736 L13.737,15.029 C13.346,14.638 13.346,14.006 13.737,13.615 C14.128,13.224 14.760,13.224 15.151,13.615 L15.858,14.322 C16.249,14.713 16.249,15.345 15.858,15.736 C15.663,15.931 15.407,16.029 15.151,16.029 ZM30.000,49.879 C30.552,49.879 31.000,50.326 31.000,50.879 L31.000,51.879 C31.000,52.432 30.552,52.879 30.000,52.879 C29.448,52.879 29.000,52.432 29.000,51.879 L29.000,50.879 C29.000,50.326 29.448,49.879 30.000,49.879 ZM9.000,30.879 L8.000,30.879 C7.448,30.879 7.000,30.432 7.000,29.879 C7.000,29.326 7.448,28.879 8.000,28.879 L9.000,28.879 C9.552,28.879 10.000,29.326 10.000,29.879 C10.000,30.432 9.552,30.879 9.000,30.879 Z" class="cls-1"/>
</svg>
