<?xml version="1.0" encoding="utf-8"?>
<!-- Generator: Adobe Illustrator 19.2.0, SVG Export Plug-In . SVG Version: 6.00 Build 0)  -->
<svg version="1.1" id="Слой_1" xmlns="http://www.w3.org/2000/svg" xmlns:xlink="http://www.w3.org/1999/xlink" x="0px" y="0px"
	 viewBox="0 0 206 205.8" style="enable-background:new 0 0 206 205.8;" xml:space="preserve">
<style type="text/css">
	.st0{fill:#D6D6D6;}
	.st1{opacity:0.77;}
	.st2{opacity:0.77;fill:#EDEDED;}
	.st3{fill:url(#SVGID_1_);}
	.st4{fill:url(#SVGID_2_);}
	.st5{fill:#E8E8E8;}
	.st6{opacity:0.68;fill:#FFFFFF;}
	.st7{fill:url(#SVGID_3_);}
	.st8{fill:#A3A3A3;}
	.st9{fill:#B5B5B5;}
	.st10{fill:#FE6E4F;}
	.st11{fill:#FFFFFF;}
	.st12{opacity:0.49;fill:#FF3D33;}
	.st13{fill:#C4C4C4;}
	.st14{fill:url(#SVGID_4_);}
	.st15{fill:#0083C0;}
	.st16{fill:#005D8F;}
	.st17{fill:url(#SVGID_5_);}
	.st18{fill:#C2C2C2;}
	.st19{fill:#878787;}
</style>
<g>
	<g>
		<path class="st0" d="M118.6,34.8l-5.3,0c-6.4,0-11.5,6.4-11.5,14.2c0,7.8,5.2,14.2,11.5,14.2l5.3,0c6.4,0,11.5-6.4,11.5-14.2
			C130.1,41.2,125,34.8,118.6,34.8L118.6,34.8z M128.8,45.4l-4.4,0c-0.1-0.6-0.3-1.2-0.5-1.8l4.4,0
			C128.5,44.2,128.7,44.8,128.8,45.4L128.8,45.4z M126.5,40.1c0.4,0.6,0.8,1.1,1.1,1.8l-4.4,0c-0.3-0.6-0.6-1.2-1-1.8L126.5,40.1z
			 M122.4,36.6c0.9,0.4,1.8,1,2.6,1.8l-4.1,0v0c-0.6-0.7-1.3-1.3-2.1-1.8L122.4,36.6z M113.3,62.3c-5.9,0-10.7-6-10.7-13.3
			c0-7.3,4.8-13.3,10.7-13.3c5.9,0,10.7,6,10.7,13.3C123.9,56.3,119.1,62.3,113.3,62.3L113.3,62.3z M126.5,57.9l-4.3,0
			c0.4-0.6,0.7-1.2,1-1.8l4.4,0C127.3,56.7,126.9,57.3,126.5,57.9L126.5,57.9z M117.7,49.5c0.3,0.6,0.5,1.2,0.5,2
			c0,1.2-0.4,2.2-1.1,2.9c-0.7,0.8-1.7,1.2-3,1.4v2h-1.7l0-2c-2.2-0.2-3.6-1.5-4.1-3.8l2.6-0.7c0.2,1.5,1,2.2,2.4,2.2
			c0.6,0,1.1-0.2,1.4-0.5c0.3-0.3,0.4-0.7,0.4-1.1c0-0.5-0.1-0.8-0.4-1c-0.3-0.2-1-0.5-2-0.9c-0.9-0.3-1.6-0.6-2.2-1
			c-0.5-0.3-0.9-0.8-1.3-1.3c-0.3-0.6-0.5-1.2-0.5-2c0-1,0.3-1.9,0.9-2.7c0.6-0.8,1.5-1.3,2.7-1.4l0-1.6l1.7,0v1.6
			c1.9,0.2,3.1,1.3,3.7,3.2l-2.3,1c-0.5-1.3-1.2-2-2.1-2c-0.5,0-0.9,0.1-1.1,0.4c-0.3,0.3-0.4,0.6-0.4,1.1c0,0.4,0.1,0.7,0.4,1
			c0.3,0.2,0.9,0.5,1.8,0.8c1,0.4,1.8,0.7,2.3,1C116.9,48.5,117.3,49,117.7,49.5L117.7,49.5z M117.7,49.5"/>
	</g>
	<g>
		<g class="st1">
			<path class="st2" d="M174.2,100.3c0,39.9-32,72.2-71.9,72.2s-72.5-32.3-72.5-72.2s32.3-72.2,72.2-72.2S174.2,60.5,174.2,100.3z"
				/>
		</g>
		<linearGradient id="SVGID_1_" gradientUnits="userSpaceOnUse" x1="5.8492" y1="100.3564" x2="198.2514" y2="100.3564">
			<stop  offset="8.171237e-03" style="stop-color:#0083C0"/>
			<stop  offset="0.1354" style="stop-color:#0092CC"/>
			<stop  offset="0.3249" style="stop-color:#00A3DA"/>
			<stop  offset="0.4676" style="stop-color:#00A9DF"/>
			<stop  offset="0.6654" style="stop-color:#00A6DD"/>
			<stop  offset="0.8129" style="stop-color:#009CD5"/>
			<stop  offset="0.9439" style="stop-color:#008CC8"/>
			<stop  offset="1" style="stop-color:#0083C0"/>
		</linearGradient>
		<path class="st3" d="M103.7,195.8c-4.3,0-8.6-0.3-13-0.9C65,191.6,42,178.6,26.1,158.5c-15.8-20-22.7-44.7-19.4-69.7
			C9.9,63.9,22.8,41.5,43,25.5C84.4-7.3,144.8-0.2,177.6,41.2l-0.4,0.3C144.6,0.3,84.5-6.7,43.3,25.9C23.2,41.8,10.4,64.1,7.1,88.8
			c-3.3,24.9,3.6,49.5,19.3,69.4c15.9,20.1,38.7,33,64.4,36.3c25.8,3.4,50.9-3.4,70.8-19.1c15-11.9,25.9-27.7,31.7-45.8
			c3.8-12.1,5.2-24.7,4.1-37.4l0.5,0c1.1,12.7-0.3,25.4-4.1,37.6c-5.8,18.2-16.8,34.2-31.8,46.1C145.3,188.9,125,195.8,103.7,195.8z
			"/>
		<g>
			<linearGradient id="SVGID_2_" gradientUnits="userSpaceOnUse" x1="77.8204" y1="84.9174" x2="168.7999" y2="84.9174">
				<stop  offset="8.171237e-03" style="stop-color:#0083C0"/>
				<stop  offset="0.1354" style="stop-color:#0092CC"/>
				<stop  offset="0.3249" style="stop-color:#00A3DA"/>
				<stop  offset="0.4676" style="stop-color:#00A9DF"/>
				<stop  offset="0.6654" style="stop-color:#00A6DD"/>
				<stop  offset="0.8129" style="stop-color:#009CD5"/>
				<stop  offset="0.9439" style="stop-color:#008CC8"/>
				<stop  offset="1" style="stop-color:#0083C0"/>
			</linearGradient>
			<path class="st4" d="M163.1,118.7H83.5c-3.1,0-5.7-2.6-5.7-5.7V56.8c0-3.1,2.6-5.7,5.7-5.7h79.6c3.1,0,5.7,2.6,5.7,5.7v56.3
				C168.8,116.2,166.2,118.7,163.1,118.7z"/>
			<rect x="84" y="56.9" class="st5" width="77.7" height="56"/>
			<polygon class="st6" points="84,112.9 161.7,56.9 161.7,112.9 			"/>
		</g>
		<linearGradient id="SVGID_3_" gradientUnits="userSpaceOnUse" x1="70.2305" y1="123.9367" x2="176.3897" y2="123.9367">
			<stop  offset="8.171237e-03" style="stop-color:#0083C0"/>
			<stop  offset="0.1354" style="stop-color:#0092CC"/>
			<stop  offset="0.3249" style="stop-color:#00A3DA"/>
			<stop  offset="0.4676" style="stop-color:#00A9DF"/>
			<stop  offset="0.6654" style="stop-color:#00A6DD"/>
			<stop  offset="0.8129" style="stop-color:#009CD5"/>
			<stop  offset="0.9439" style="stop-color:#008CC8"/>
			<stop  offset="1" style="stop-color:#0083C0"/>
		</linearGradient>
		<path class="st7" d="M70.3,121.1h106.1c0,0,0.1,5.6-3.5,5.6c-1.9,0-98.7,0-98.7,0S69.9,126.1,70.3,121.1z"/>
		<path class="st8" d="M60.3,123.9l8.8-9v5.7c0,0,3.8,5,8.1,1.3l-1.1-18l-7.3,0.9l-10,13.2L60.3,123.9z"/>
		<path class="st9" d="M60.3,119.2v-11.5l8.8-7.8l7.6,9.9l0.5,9.9c-4.4,3-6-2-6-2l-0.1-6.8l-1.8-1.1l-8.2,9.7"/>
		<g>
			<path class="st10" d="M109.1,110.9H74.8c-3.1,0-6.3,1-5.7-5.7V85c-0.7-6.4,2.6-5.7,5.7-5.7h34.3c6.8-0.6,5.7,2.6,5.7,5.7v20.2
				C114.8,108.3,115.9,111.7,109.1,110.9z"/>
			<path class="st11" d="M112,111.1H71.8c-1.6,0-3-1.3-3-3V82.1c0-1.6,1.3-3,3-3H112c1.6,0,3,1.3,3,3v26.1
				C115,109.8,113.7,111.1,112,111.1z M71.8,79.6c-1.4,0-2.5,1.1-2.5,2.5v26.1c0,1.4,1.1,2.5,2.5,2.5H112c1.4,0,2.5-1.1,2.5-2.5
				V82.1c0-1.4-1.1-2.5-2.5-2.5H71.8z"/>
		</g>
		<path class="st12" d="M106.8,79.6l-37.3,28.1c0,0-0.4,2.8,2.7,3h39.5c0,0,1.8,0.1,2.5-1c0,0,0.5-0.1,0.5-3.2l0-24.1
			c0,0-0.1-2.8-2.8-2.7H106.8z"/>
		<path class="st0" d="M68.4,100.8l-5.8,5.8v13.6c0,0,2.1,4.8,8.6,4.2l2.6-1.8v-13.4c0,0,0.2-3,3.2-3s3.7,2.8,3.5,10.9l0,22.2H61
			l-5.1-15.7V104l12.4-11.3c0,0,3-1.1,3,3.2C71.2,97.3,68.4,100.8,68.4,100.8z"/>
		<path class="st9" d="M61.2,122"/>
		<path class="st13" d="M126.8,102.4l-1.2,10.3c0,0-0.6,1.7,3.3,2l7.3,0.3c0,0,1.9-0.4,1.8-1.8c-0.1-1.7,0.5-8.2,0.5-8.2
			s-3-1.6-4.2,0.6l-1.1,4.9l-1.6-0.4l1-8.7L126.8,102.4z"/>
		<linearGradient id="SVGID_4_" gradientUnits="userSpaceOnUse" x1="156.6873" y1="93.5904" x2="191.7728" y2="93.5904">
			<stop  offset="0" style="stop-color:#C2C2C2"/>
			<stop  offset="0.484" style="stop-color:#D2D2D2"/>
			<stop  offset="0.9498" style="stop-color:#C2C2C2"/>
		</linearGradient>
		<rect x="156.7" y="83.5" class="st14" width="35.1" height="20.3"/>
		<path class="st0" d="M146.7,86.4c0,0-12.5,0.2-18.5,10.2c0,0-6.7,10.9-6.7,11.6s0,12.5,0,12.5s-0.5,2.8,2.8,3c0,0,3,1.1,2.6-7.4
			l-0.2-7.2c0,0,6-9.2,9.7-9.2c0,0,3.9-0.2,4.1,7.6c0,0-0.9,10.6,2.8,10.6c0,0,3.7,0.4,3.3-6.7l0-8.5l3.3-1.4l-0.7-15.2H146.7z"/>
		<rect x="69.1" y="100.8" class="st11" width="45.7" height="3.2"/>
		<rect x="99.4" y="84.2" class="st11" width="10.8" height="6.9"/>
		<circle class="st0" cx="77.2" cy="87.7" r="3.8"/>
		<circle class="st11" cx="81" cy="87.7" r="3.8"/>
		<g>
			<g>
				<path class="st15" d="M95.2,64.9c0,0.7-0.4,1.3-1.1,1.6c0.8,0.2,1.5,1,1.5,1.9c0,1.1-0.9,1.9-1.9,1.9h-3.7v-7.1h3.5
					C94.4,63.1,95.2,63.9,95.2,64.9z M93.5,66.4c0.8,0,1.5-0.7,1.5-1.5s-0.7-1.5-1.5-1.5h-3.3v3.1H93.5z M90.1,66.6v3.5h3.5
					c1,0,1.7-0.8,1.7-1.7c0-1-0.8-1.7-1.7-1.7H90.1z"/>
				<path class="st15" d="M93.7,70.5h-3.9V63h3.7c1.1,0,1.9,0.9,1.9,1.9c0,0.6-0.3,1.2-0.8,1.6c0.7,0.3,1.2,1.1,1.2,1.9
					C95.8,69.5,94.8,70.5,93.7,70.5z M90.3,69.9h3.3c0.9,0,1.6-0.7,1.6-1.6s-0.7-1.6-1.6-1.6h-3.3V69.9z M90.3,66.2h3.2
					c0.8,0,1.4-0.6,1.4-1.4s-0.6-1.4-1.4-1.4h-3.2V66.2z"/>
			</g>
			<g>
				<path class="st15" d="M96.7,63.1h0.2v4.3c0,1.4,1.2,2.6,2.6,2.6c1.4,0,2.6-1.2,2.6-2.6v-4.3h0.2v4.3c0,1.6-1.3,2.8-2.8,2.8
					c-1.6,0-2.8-1.3-2.8-2.8V63.1z"/>
				<path class="st15" d="M99.5,70.5c-1.7,0-3-1.3-3-3V63h0.6v4.5c0,1.3,1.1,2.4,2.4,2.4c1.3,0,2.4-1.1,2.5-2.4V63h0.6v4.5
					C102.5,69.1,101.2,70.5,99.5,70.5z"/>
			</g>
			<g>
				<path class="st15" d="M105.7,67.6l-2.6-4.5h0.2l2.5,4.3l2.5-4.3h0.2l-2.6,4.5v2.6h-0.2V67.6z"/>
				<polygon class="st15" points="106.1,70.5 105.6,70.5 105.6,67.7 102.8,63 103.4,63 105.8,67.1 108.2,63 108.9,63 106.1,67.7 
									"/>
			</g>
			<g>
				<path class="st15" d="M120.6,69.2c-0.6,0.6-1.5,1-2.5,1c-2,0-3.6-1.6-3.6-3.6c0-2,1.6-3.6,3.6-3.6c1,0,1.9,0.4,2.5,1l-0.1,0.1
					c-0.6-0.6-1.4-1-2.4-1c-1.9,0-3.4,1.5-3.4,3.4c0,1.9,1.5,3.4,3.4,3.4c0.9,0,1.8-0.4,2.4-1L120.6,69.2z"/>
				<path class="st15" d="M118.1,70.5c-2.1,0-3.8-1.7-3.8-3.8c0-2.1,1.7-3.8,3.8-3.8c1,0,1.9,0.4,2.6,1.1l0.1,0.1l-0.4,0.4l-0.1-0.1
					c-0.6-0.6-1.4-0.9-2.3-0.9c-1.8,0-3.2,1.4-3.2,3.2c0,1.8,1.4,3.2,3.2,3.2c0.8,0,1.7-0.3,2.3-1l0.1-0.1l0.4,0.4l-0.1,0.1
					C120,70.1,119.1,70.5,118.1,70.5z"/>
			</g>
			<g>
				<path class="st15" d="M124.5,67.4h-2v2.9h-0.2v-7.1h2.4c1.2,0,2.1,1,2.1,2.1c0,1.2-0.9,2.1-2.1,2.1l1.7,2.9h-0.2L124.5,67.4z
					 M124.7,63.3h-2.2v3.9h2.2c1,0,1.9-0.9,1.9-1.9C126.6,64.2,125.8,63.3,124.7,63.3z"/>
				<path class="st15" d="M126.8,70.5h-0.6l-1.7-2.9h-1.8v2.9h-0.5V63h2.6c1.3,0,2.3,1,2.3,2.3c0,1.1-0.9,2.1-2,2.3L126.8,70.5z
					 M122.7,67h2c1,0,1.7-0.8,1.7-1.7c0-1-0.8-1.7-1.7-1.8h-2V67z"/>
			</g>
			<g>
				<path class="st15" d="M128.4,63.1h4.4v0.2h-4.3v3.2h4v0.2h-4v3.4h4.3v0.2h-4.4V63.1z"/>
				<polygon class="st15" points="133,70.5 128.2,70.5 128.2,63 133,63 133,63.5 128.7,63.5 128.7,66.4 132.7,66.4 132.7,66.9 
					128.7,66.9 128.7,69.9 133,69.9 				"/>
			</g>
			<g>
				<path class="st15" d="M134.4,63.1h2.7c2,0,3.6,1.6,3.6,3.6c0,2-1.6,3.6-3.6,3.6h-2.7V63.1z M137.1,63.3h-2.5v6.8h2.5
					c1.9,0,3.4-1.5,3.4-3.4C140.5,64.8,139,63.3,137.1,63.3z"/>
				<path class="st15" d="M137.1,70.5h-2.9V63h2.9c2.1,0,3.7,1.7,3.7,3.8C140.8,68.8,139.2,70.5,137.1,70.5z M134.8,69.9h2.3
					c1.8,0,3.2-1.4,3.2-3.2c0-1.8-1.4-3.2-3.2-3.2h-2.3V69.9z"/>
			</g>
			<g>
				<path class="st15" d="M142.4,70.3v-7.1h0.2v7.1H142.4z"/>
				<rect x="142.2" y="63" class="st15" width="0.5" height="7.5"/>
			</g>
			<g>
				<path class="st15" d="M150.1,63.1v0.2h-2.7v7h-0.2v-7h-2.7v-0.2H150.1z"/>
				<polygon class="st15" points="147.5,70.5 147,70.5 147,63.5 144.3,63.5 144.3,63 150.3,63 150.3,63.5 147.5,63.5 				"/>
			</g>
			<g>
				<path class="st15" d="M154.8,65c0-0.9-0.7-1.6-1.6-1.6c-0.9,0-1.6,0.7-1.6,1.6c0,0.9,0.7,1.6,1.6,1.6c1,0,1.8,0.8,1.8,1.8
					s-0.8,1.8-1.8,1.8c-1,0-1.8-0.8-1.8-1.8h0.2c0,0.9,0.7,1.7,1.6,1.7c0.9,0,1.6-0.7,1.6-1.6c0-0.9-0.7-1.7-1.6-1.7
					c-1,0-1.8-0.8-1.8-1.8c0-1,0.8-1.8,1.8-1.8c1,0,1.8,0.8,1.8,1.8H154.8z"/>
				<path class="st15" d="M153.1,70.5c-1.1,0-2-0.9-2-2v-0.2h0.5v0.2c0,0.8,0.7,1.5,1.5,1.5s1.5-0.7,1.5-1.5c0-0.8-0.7-1.5-1.5-1.5
					c-1.1,0-2-0.9-2-2c0-1.1,0.9-2,2-2c1.1,0,2,0.9,2,2v0.2h-0.5V65c0-0.8-0.7-1.5-1.5-1.5s-1.5,0.7-1.5,1.5s0.7,1.5,1.5,1.5
					c1.1,0,2,0.9,2,2S154.3,70.5,153.1,70.5z"/>
			</g>
		</g>
		<path class="st16" d="M80.6,125.2h93c0,0,2.4,0.1,2.8-3.2c0,0-0.4,4.1-2.2,4.8H80.6L80.6,125.2z"/>
		<g>
			<linearGradient id="SVGID_5_" gradientUnits="userSpaceOnUse" x1="58.7131" y1="158.7673" x2="83.749" y2="158.7673">
				<stop  offset="0" style="stop-color:#C2C2C2"/>
				<stop  offset="0.484" style="stop-color:#D2D2D2"/>
				<stop  offset="0.9498" style="stop-color:#C2C2C2"/>
			</linearGradient>
			<rect x="58.7" y="145" class="st17" width="25" height="27.5"/>
			<rect x="81" y="145" class="st18" width="2.7" height="27.5"/>
		</g>
		
			<rect x="172.9" y="67.3" transform="matrix(5.120419e-11 1 -1 5.120419e-11 259.0504 -89.4098)" class="st18" width="2.7" height="35.1"/>
		<rect x="84" y="56.9" class="st16" width="77.7" height="0.7"/>
		<path class="st18" d="M78.6,106.7c0,0,2.4,0.3,2,11.3l0,21.4h-2.8C77.8,139.5,78.3,112.2,78.6,106.7z"/>
		<rect x="60.5" y="141.9" class="st19" width="21.9" height="3.1"/>
		
			<rect x="147.1" y="92.1" transform="matrix(6.201777e-11 1 -1 6.201777e-11 248.7193 -61.4097)" class="st19" width="15.8" height="3.1"/>
	</g>
	<g>
		<path class="st0" d="M54.6,45.4l-5.3,0c-6.4,0-11.5,6.4-11.5,14.2c0,7.8,5.2,14.2,11.5,14.2l5.3,0c6.4,0,11.5-6.4,11.5-14.2
			C66.2,51.8,61,45.4,54.6,45.4L54.6,45.4z M64.9,56.1l-4.4,0c-0.1-0.6-0.3-1.2-0.5-1.8l4.4,0C64.6,54.8,64.8,55.4,64.9,56.1
			L64.9,56.1z M62.6,50.7c0.4,0.6,0.8,1.1,1.1,1.8l-4.4,0c-0.3-0.6-0.6-1.2-1-1.8L62.6,50.7z M58.4,47.2c0.9,0.4,1.8,1,2.6,1.8
			l-4.1,0v0c-0.6-0.7-1.3-1.3-2.1-1.8L58.4,47.2z M49.3,72.9c-5.9,0-10.7-6-10.7-13.3s4.8-13.3,10.7-13.3c5.9,0,10.7,6,10.7,13.3
			S55.2,72.9,49.3,72.9L49.3,72.9z M62.6,68.5l-4.3,0c0.4-0.6,0.7-1.2,1-1.8l4.4,0C63.3,67.3,62.9,67.9,62.6,68.5L62.6,68.5z
			 M53.7,60.1c0.3,0.6,0.5,1.2,0.5,2c0,1.2-0.4,2.2-1.1,2.9c-0.7,0.8-1.7,1.2-3,1.4v2h-1.7v-2c-2.2-0.2-3.6-1.5-4.1-3.8L47,62
			c0.2,1.5,1,2.2,2.4,2.2c0.6,0,1.1-0.2,1.4-0.5c0.3-0.3,0.4-0.7,0.4-1.1c0-0.5-0.1-0.8-0.4-1c-0.3-0.2-1-0.5-2-0.9
			c-0.9-0.3-1.6-0.6-2.2-1c-0.5-0.3-0.9-0.8-1.3-1.3c-0.3-0.6-0.5-1.2-0.5-2c0-1,0.3-1.9,0.9-2.7c0.6-0.8,1.5-1.3,2.7-1.4v-1.6
			l1.7,0v1.6c1.9,0.2,3.1,1.3,3.7,3.2l-2.3,1c-0.5-1.3-1.2-2-2.1-2c-0.5,0-0.9,0.1-1.1,0.4c-0.3,0.3-0.4,0.6-0.4,1.1
			c0,0.4,0.1,0.7,0.4,1c0.3,0.2,0.9,0.5,1.8,0.8c1,0.4,1.8,0.7,2.3,1C52.9,59.1,53.4,59.6,53.7,60.1L53.7,60.1z M53.7,60.1"/>
	</g>
	<g>
		<path class="st0" d="M82.2,21.3l-5,0c-6,0-10.8,6-10.8,13.3C66.4,42,71.2,48,77.2,48l5,0c6,0,10.8-6,10.8-13.3
			C93,27.3,88.2,21.3,82.2,21.3L82.2,21.3z M91.8,31.3l-4.2,0c-0.1-0.6-0.3-1.1-0.4-1.7l4.1,0C91.5,30.2,91.7,30.8,91.8,31.3
			L91.8,31.3z M89.6,26.3c0.4,0.5,0.7,1.1,1,1.7l-4.1,0c-0.3-0.6-0.6-1.1-0.9-1.7L89.6,26.3z M85.7,23c0.9,0.4,1.7,1,2.4,1.7l-3.8,0
			v0c-0.6-0.6-1.2-1.2-1.9-1.7L85.7,23z M77.2,47.1c-5.5,0-10-5.6-10-12.5s4.5-12.5,10-12.5c5.5,0,10,5.6,10,12.5
			C87.2,41.5,82.7,47.1,77.2,47.1L77.2,47.1z M89.6,43l-4,0c0.3-0.5,0.7-1.1,0.9-1.7l4.1,0C90.3,41.9,90,42.5,89.6,43L89.6,43z
			 M81.3,35.2c0.3,0.5,0.5,1.2,0.5,1.9c0,1.1-0.3,2-1,2.7c-0.7,0.7-1.6,1.2-2.8,1.3V43h-1.6v-1.9c-2.1-0.2-3.3-1.4-3.8-3.6l2.4-0.6
			c0.2,1.4,1,2.1,2.2,2.1c0.6,0,1-0.1,1.3-0.4c0.3-0.3,0.4-0.6,0.4-1.1c0-0.4-0.1-0.8-0.4-1c-0.3-0.2-0.9-0.5-1.9-0.8
			c-0.9-0.3-1.5-0.6-2-0.9c-0.5-0.3-0.9-0.7-1.2-1.2c-0.3-0.5-0.5-1.1-0.5-1.8c0-0.9,0.3-1.8,0.8-2.5c0.5-0.7,1.4-1.2,2.6-1.4v-1.5
			l1.6,0v1.5c1.8,0.2,2.9,1.2,3.4,3l-2.2,0.9c-0.4-1.2-1.1-1.8-2-1.8c-0.4,0-0.8,0.1-1.1,0.4c-0.3,0.3-0.4,0.6-0.4,1
			c0,0.4,0.1,0.7,0.4,0.9c0.3,0.2,0.8,0.5,1.7,0.8c0.9,0.3,1.7,0.7,2.2,1C80.6,34.2,81,34.6,81.3,35.2L81.3,35.2z M81.3,35.2"/>
	</g>
</g>
</svg>
