<?xml version="1.0" encoding="utf-8"?>
<!-- Generator: Adobe Illustrator 19.2.0, SVG Export Plug-In . SVG Version: 6.00 Build 0)  -->
<svg version="1.1" id="Слой_1" xmlns="http://www.w3.org/2000/svg" xmlns:xlink="http://www.w3.org/1999/xlink" x="0px" y="0px"
	 viewBox="0 0 197 195.5" style="enable-background:new 0 0 197 195.5;" xml:space="preserve">
<style type="text/css">
	.st0{opacity:0.77;}
	.st1{opacity:0.77;fill:#EDEDED;}
	.st2{clip-path:url(#SVGID_2_);fill:#FFFFFF;}
	.st3{fill:url(#SVGID_3_);}
	.st4{fill:url(#SVGID_4_);}
	.st5{fill:url(#SVGID_5_);}
	.st6{fill:#FF6E4F;}
	.st7{fill:#FF3D33;}
	.st8{fill:#FFFFFF;}
	.st9{fill:url(#SVGID_6_);}
	.st10{fill:#0085C9;}
	.st11{fill:#005D8F;}
	.st12{fill:#C76047;}
	.st13{fill:#881847;}
	.st14{opacity:0.26;fill:url(#SVGID_7_);}
	.st15{fill:url(#SVGID_8_);}
	.st16{fill:url(#SVGID_9_);}
</style>
<g>
	<g class="st0">
		<path class="st1" d="M170.5,97.5c0,39.9-32,72.2-71.9,72.2s-72.5-32.3-72.5-72.2s32.3-72.2,72.2-72.2S170.5,57.6,170.5,97.5z"/>
	</g>
	<g>
		<defs>
			<path id="SVGID_1_" d="M170.7,97.5c0,39.9-32,72.2-71.9,72.2s-72.5-32.3-72.5-72.2s32.3-72.2,72.2-72.2S170.7,57.6,170.7,97.5z"
				/>
		</defs>
		<clipPath id="SVGID_2_">
			<use xlink:href="#SVGID_1_"  style="overflow:visible;"/>
		</clipPath>
		<polygon class="st2" points="101.5,69.5 114.6,-26.3 107.4,70.1 140.1,-20.8 113,71.9 163.9,-10.2 118.1,74.9 185,5.1 122.5,78.8 
			202.4,24.5 126,83.6 215.4,47 128.4,89 223.5,71.8 129.6,94.8 226.2,97.7 129.6,100.7 223.5,123.7 128.4,106.5 215.4,148.4 
			126,111.9 202.4,171 122.5,116.7 185,190.4 118.1,120.6 163.9,205.7 113,123.6 140.1,216.3 107.4,125.4 114.6,221.7 101.5,126 
			88.5,221.7 95.7,125.4 63,216.3 90,123.6 39.2,205.7 84.9,120.6 18.1,190.4 80.5,116.7 0.7,171 77,111.9 -12.4,148.4 74.6,106.5 
			-20.4,123.7 73.4,100.7 -23.1,97.7 73.4,94.8 -20.4,71.8 74.6,89 -12.4,47 77,83.6 0.7,24.5 80.5,78.8 18.1,5.1 84.9,74.9 
			39.2,-10.2 90,71.9 63,-20.8 95.7,70.1 88.5,-26.3 		"/>
	</g>
	<linearGradient id="SVGID_3_" gradientUnits="userSpaceOnUse" x1="2.111" y1="97.5085" x2="194.5133" y2="97.5085">
		<stop  offset="8.171237e-03" style="stop-color:#0083C0"/>
		<stop  offset="0.1354" style="stop-color:#0092CC"/>
		<stop  offset="0.3249" style="stop-color:#00A3DA"/>
		<stop  offset="0.4676" style="stop-color:#00A9DF"/>
		<stop  offset="0.6654" style="stop-color:#00A6DD"/>
		<stop  offset="0.8129" style="stop-color:#009CD5"/>
		<stop  offset="0.9439" style="stop-color:#008CC8"/>
		<stop  offset="1" style="stop-color:#0083C0"/>
	</linearGradient>
	<path class="st3" d="M100,193c-4.3,0-8.6-0.3-13-0.9c-25.7-3.4-48.7-16.3-64.7-36.5c-15.8-20-22.7-44.7-19.4-69.7
		c3.3-24.8,16.2-47.3,36.3-63.2C80.7-10.1,141-3.1,173.8,38.3l-0.4,0.3C140.8-2.6,80.8-9.6,39.6,23C19.5,38.9,6.6,61.3,3.4,86
		c-3.3,24.9,3.6,49.5,19.3,69.4c15.9,20.1,38.7,33,64.4,36.3c25.8,3.4,50.9-3.4,70.8-19.1c15-11.9,25.9-27.7,31.7-45.8
		c3.8-12.1,5.2-24.7,4.1-37.4l0.5,0c1.1,12.7-0.3,25.4-4.1,37.6c-5.8,18.2-16.8,34.2-31.8,46.1C141.5,186.1,121.2,193,100,193z"/>
	<linearGradient id="SVGID_4_" gradientUnits="userSpaceOnUse" x1="41.7317" y1="112.3039" x2="60.9332" y2="112.3039">
		<stop  offset="8.171237e-03" style="stop-color:#0083C0"/>
		<stop  offset="0.1354" style="stop-color:#0092CC"/>
		<stop  offset="0.3249" style="stop-color:#00A3DA"/>
		<stop  offset="0.4676" style="stop-color:#00A9DF"/>
		<stop  offset="0.6654" style="stop-color:#00A6DD"/>
		<stop  offset="0.8129" style="stop-color:#009CD5"/>
		<stop  offset="0.9439" style="stop-color:#008CC8"/>
		<stop  offset="1" style="stop-color:#0083C0"/>
	</linearGradient>
	<path class="st4" d="M50.6,101.4c0,0,0,10.5-8.8,11c0,0,9.8,2.2,9.8,11c0,0-0.1-10.4,9.4-11.7C60.9,111.6,51.2,111.9,50.6,101.4z"
		/>
	<linearGradient id="SVGID_5_" gradientUnits="userSpaceOnUse" x1="130.4627" y1="141.4552" x2="161.4043" y2="141.4552">
		<stop  offset="8.171237e-03" style="stop-color:#0083C0"/>
		<stop  offset="0.1354" style="stop-color:#0092CC"/>
		<stop  offset="0.3249" style="stop-color:#00A3DA"/>
		<stop  offset="0.4676" style="stop-color:#00A9DF"/>
		<stop  offset="0.6654" style="stop-color:#00A6DD"/>
		<stop  offset="0.8129" style="stop-color:#009CD5"/>
		<stop  offset="0.9439" style="stop-color:#008CC8"/>
		<stop  offset="1" style="stop-color:#0083C0"/>
	</linearGradient>
	<path class="st5" d="M144.7,123.8c0,0,0,17-14.2,17.6c0,0,15.7,3.5,15.7,17.6c0,0-0.2-16.8,15.2-18.9
		C161.4,140.2,145.7,140.8,144.7,123.8z"/>
	<path class="st6" d="M91.8,26.9c0,0,0,14.4-12.1,15c0,0,13.3,3,13.3,15c0,0-0.2-14.2,12.9-16C106,40.8,92.6,41.3,91.8,26.9z"/>
	<path class="st7" d="M59.9,126.5c0,0,0,14.4-12.1,15c0,0,13.3,3,13.3,15c0,0-0.2-14.2,12.9-16C74,140.4,60.7,140.9,59.9,126.5z"/>
	<path class="st6" d="M138.2,101.1c0,0,0,8.5-7.1,8.8c0,0,7.8,1.8,7.8,8.8c0,0-0.1-8.4,7.6-9.4C146.5,109.3,138.7,109.6,138.2,101.1
		z"/>
	<line class="st8" x1="89.4" y1="98.9" x2="18.8" y2="106.7"/>
	<g>
		<g>
			<linearGradient id="SVGID_6_" gradientUnits="userSpaceOnUse" x1="56.939" y1="102.7949" x2="144.6761" y2="102.7949">
				<stop  offset="8.171237e-03" style="stop-color:#0083C0"/>
				<stop  offset="0.1354" style="stop-color:#0092CC"/>
				<stop  offset="0.3249" style="stop-color:#00A3DA"/>
				<stop  offset="0.4676" style="stop-color:#00A9DF"/>
				<stop  offset="0.6654" style="stop-color:#00A6DD"/>
				<stop  offset="0.8129" style="stop-color:#009CD5"/>
				<stop  offset="0.9439" style="stop-color:#008CC8"/>
				<stop  offset="1" style="stop-color:#0083C0"/>
			</linearGradient>
			<path class="st9" d="M74.9,61.6c0,0-1.4-3.3,3.8-3.3h46.7c0,0,2.2,0,3.4,0.6c1.1,0.5,1.4,1.5,0.1,2.8c0,0-4.3,2.1-3,3.7h18.8
				c0,0,0.6,31.3-34.9,43.2c0,0-3.4,1.4-3.1,1.8c0,0,2.2,1.4,2.1,3.3c-0.1,0.9-0.6,1.9-2.1,3c0,0-4,8.5,10.6,13.9l0.1,3.6h5.7
				l2.2,13H76.4l3.7-13.2h5.5c0,0-0.5-3.2-0.1-3.4c0,0,12-4.4,10.8-13.6c0,0-2.3-1.1-2.3-3.1c0-0.9,0.4-2,1.8-3.3c0,0-2.8-1.2-7-3
				c0,0-31.7-15.1-31.9-40.6l20.4-0.3C77.3,66.7,77,66.1,74.9,61.6z"/>
			<path class="st8" d="M124.8,69.5c0,0-2.9,5.8-2.6,9.7c0.4,5.7,3.5,9.1,2.6,14.4c0,0,12.5-6.8,12.7-24.2H124.8z"/>
			<path class="st8" d="M78.4,70.5c0,0,2.9,5.4,2.6,9.7c-0.4,5.7-3.5,9.1-2.6,14.4c0,0-12.5-6.8-12.7-24.2H78.4z"/>
		</g>
		<path class="st8" d="M77.1,62.2c-0.3-0.2,6.1,0,6.1,0s9.5,6.2,3.7,21.1c-2,5-4.9,11.4,8.5,19.9c0,0-14.4-3.9-12.9-14.5
			c0.5-3.7,3.4-9.9,3.4-14C85.8,71.4,84.3,66.5,77.1,62.2z"/>
	</g>
	<rect x="85.5" y="130.6" class="st10" width="31.9" height="3.7"/>
	<rect x="75.6" y="143.1" class="st11" width="50.4" height="4.2"/>
	<path class="st11" d="M94,113.3c0,0,9.1,0.2,14.8,0c0,0,0.6,2.8-2,3.5c-1.9,0.5-10.4,0.2-10.4,0.2S93.4,116.5,94,113.3z"/>
	<polygon class="st10" points="125.7,67 144.6,67 144.7,65.5 126.3,65.5 	"/>
	<path class="st10" d="M142.6,66.6c0,0,0.2,24.1-23.2,35.9l-4.9,4.3c0,0,15.3-6.6,20.5-15c0,0,8.8-10,9.7-25.5L142.6,66.6z"/>
	<path class="st12" d="M93.1,55.7c0,0-0.3-10.9,8.2-14.6c0,0-7.5-2.8-8.4-8.4l-0.3-1.5c0,0,2.1,9.6,13.5,9.7
		C106,40.8,94.4,41.1,93.1,55.7z"/>
	<path class="st13" d="M59.9,127.1c0-0.1,0.3,12.6,13.6,13.3c0,0-12,1.4-12.4,15.8c0,0-0.9-11.5,8.7-15.4
		C69.8,140.9,60.4,138.1,59.9,127.1z"/>
	<path class="st10" d="M50.6,101.4c0,0-0.3,9.7,10.4,10.2c0,0-8.9,0.3-9.4,11.7c0,0-1.2-7.7,5.9-11.3c0,0-7.5-1.9-6.8-10.8"/>
	<path class="st10" d="M144.7,123.8c0,0-0.1,16.1,16.7,16.4c0,0-14.2,0.7-15.2,18.9c0,0-1.1-14,10.1-18.4
		C156.2,140.7,145,139.4,144.7,123.8z"/>
	<rect x="85.5" y="134.2" class="st11" width="32" height="0.4"/>
	<linearGradient id="SVGID_7_" gradientUnits="userSpaceOnUse" x1="75.5666" y1="85.5211" x2="107.6622" y2="85.5211">
		<stop  offset="0.5078" style="stop-color:#FFFFFF"/>
		<stop  offset="0.8962" style="stop-color:#FFFFFF;stop-opacity:0"/>
	</linearGradient>
	<path class="st14" d="M91.2,61.4c0,0,5.1,5.5,1.3,14.7c-6.4,15.4,9.4,33.8,29.4,20.4c0,0,3-2,3-3.7c0,0-0.6,13.5-17.2,16.4
		c0,0-25.1,4.7-29.4-14.4c0,0-1-2.2,1.4-8.3c0,0,3-8.9-1.4-15.9l-3.6-9.2H91.2z"/>
	<path class="st10" d="M119.1,62.2c0,0-4.6,8.2-0.2,16.2c3.9,7.2,9.9,22.4-11.1,30.8c0,0,19-4,17.1-19.4c0,0-3.3-11-0.9-18.3
		c0,0,3-8.3,4.1-9.4H119.1z"/>
	<path class="st11" d="M128,62.2H76c0,0-1.5-0.2-1.3-1.6c0,0-0.2,0,15.6,0h39.4c0,0-0.3,0.8-0.5,1C128.9,61.8,128,62.2,128,62.2z"/>
	<linearGradient id="SVGID_8_" gradientUnits="userSpaceOnUse" x1="91.6507" y1="134.6314" x2="91.9716" y2="109.2765">
		<stop  offset="0.5985" style="stop-color:#FFFFFF;stop-opacity:0.4015"/>
		<stop  offset="0.8962" style="stop-color:#FFFFFF;stop-opacity:0"/>
	</linearGradient>
	<path class="st15" d="M96.3,117c0,0,2,8.4-10.8,13.6H91c0,0,7.8-1.4,7-13.5L96.3,117z"/>
	<linearGradient id="SVGID_9_" gradientUnits="userSpaceOnUse" x1="81.3191" y1="145.7737" x2="81.5326" y2="128.9049">
		<stop  offset="0.5985" style="stop-color:#FFFFFF;stop-opacity:0.4015"/>
		<stop  offset="0.8962" style="stop-color:#FFFFFF;stop-opacity:0"/>
	</linearGradient>
	<polygon class="st16" points="80.1,134 77.6,143.1 83.4,143.1 85.2,134 	"/>
</g>
</svg>
