<?xml version="1.0" encoding="utf-8"?>
<!-- Generator: Adobe Illustrator 19.2.0, SVG Export Plug-In . SVG Version: 6.00 Build 0)  -->
<svg version="1.1" id="Слой_1" xmlns="http://www.w3.org/2000/svg" xmlns:xlink="http://www.w3.org/1999/xlink" x="0px" y="0px"
	 viewBox="0 0 204 197.7" style="enable-background:new 0 0 204 197.7;" xml:space="preserve">
<style type="text/css">
	.st0{opacity:0.77;}
	.st1{opacity:0.77;fill:#EDEDED;}
	.st2{fill:url(#SVGID_1_);}
	.st3{fill:#F2F2F2;}
	.st4{fill:#FF6E4F;}
	.st5{opacity:0.49;fill:#FF3D33;}
	.st6{fill:#FFFFFF;}
	.st7{fill:#C9C9C9;}
	.st8{fill:#919191;}
	.st9{fill:#545454;}
	.st10{fill:url(#SVGID_2_);}
	.st11{fill:url(#SVGID_3_);}
	.st12{fill:#A8A8A8;}
	.st13{fill:#A3A3A3;}
	.st14{fill:#B3B3B3;}
	.st15{fill:#808080;}
	.st16{fill:#EDEDED;}
	.st17{fill:#005D8F;}
	.st18{fill:#EC6E4F;}
	.st19{fill:#3B3B3B;}
	.st20{fill:#787878;}
	.st21{fill:#B0B0B0;}
	.st22{fill:#FF694F;}
</style>
<g>
	<g>
		<g class="st0">
			<path class="st1" d="M172.7,98.5c0,39.9-32,72.2-71.9,72.2s-72.5-32.3-72.5-72.2s32.3-72.2,72.2-72.2S172.7,58.6,172.7,98.5z"/>
		</g>
		<linearGradient id="SVGID_1_" gradientUnits="userSpaceOnUse" x1="4.33" y1="98.4805" x2="196.7323" y2="98.4805">
			<stop  offset="8.171237e-03" style="stop-color:#0083C0"/>
			<stop  offset="0.1354" style="stop-color:#0092CC"/>
			<stop  offset="0.3249" style="stop-color:#00A3DA"/>
			<stop  offset="0.4676" style="stop-color:#00A9DF"/>
			<stop  offset="0.6654" style="stop-color:#00A6DD"/>
			<stop  offset="0.8129" style="stop-color:#009CD5"/>
			<stop  offset="0.9439" style="stop-color:#008CC8"/>
			<stop  offset="1" style="stop-color:#0083C0"/>
		</linearGradient>
		<path class="st2" d="M102.2,194c-4.3,0-8.6-0.3-13-0.9c-25.7-3.4-48.7-16.3-64.7-36.5c-15.8-20-22.7-44.7-19.4-69.7
			c3.3-24.8,16.2-47.3,36.3-63.2c20.1-15.9,45.1-23,70.5-20c25.4,3,48.2,15.6,64,35.7l-0.4,0.3C159.9,19.7,137.2,7,112,4.1
			C86.7,1.2,61.7,8.2,41.8,24C21.7,39.9,8.9,62.3,5.6,87c-3.3,24.9,3.6,49.5,19.3,69.4c15.9,20.1,38.7,33,64.4,36.3
			c25.8,3.4,50.9-3.4,70.8-19.1c15-11.9,25.9-27.7,31.7-45.8c3.8-12.1,5.2-24.7,4.1-37.4l0.5,0c1.1,12.7-0.3,25.4-4.1,37.6
			c-5.8,18.2-16.8,34.2-31.9,46.1C143.8,187.1,123.5,194,102.2,194z"/>
		<g>
			<g>
				<path class="st3" d="M126.8,132.9H52.7c-3.1,0-5.7-2.6-5.7-5.7v-2.9c0-3.1,2.6-5.7,5.7-5.7h74.1c3.1,0,5.7,2.6,5.7,5.7v2.9
					C132.5,130.3,130,132.9,126.8,132.9z"/>
				<rect x="28.4" y="74.2" class="st4" width="41.4" height="30"/>
				<polygon class="st5" points="69.8,74.2 28.4,104.3 69.8,104.3 				"/>
				<polygon class="st6" points="59.7,100.6 41.1,100.6 41.1,107.2 46.1,107.2 46.1,139.2 54.9,139.2 54.9,107.2 59.7,107.2 				"/>
				<path class="st7" d="M69.1,118.4h-1.7c0,0-10.9-7.4-12.6-7.6v5.3l-12.5,0.7c0,0-1.6,0.2-1.4,2.3c0,0-0.2,2.1,3.9,1.8l0,0.9
					c0,0-4.4-0.8-4.5,1.3c0,0-1.3,3.5,4.8,2.8l0.1,0.8c0,0-4.9-1-5,2c0,0-0.5,2.9,4.8,2.5l0.2,0.7c0,0-2.7-0.5-2.8,1.7
					c-0.1,2.2,1.4,1.9,4.3,1.9c0,0,15.6,0.6,16.8,0c1.3-0.6,4-1.5,5.6-1.5V118.4z"/>
				<rect x="72" y="113.8" class="st8" width="4.3" height="23.3"/>
				<rect x="69.1" y="116.1" class="st9" width="2.9" height="19.1"/>
			</g>
			<linearGradient id="SVGID_2_" gradientUnits="userSpaceOnUse" x1="78.4922" y1="118.8814" x2="156.5803" y2="118.8814">
				<stop  offset="8.171237e-03" style="stop-color:#0083C0"/>
				<stop  offset="0.1354" style="stop-color:#0092CC"/>
				<stop  offset="0.3249" style="stop-color:#00A3DA"/>
				<stop  offset="0.4676" style="stop-color:#00A9DF"/>
				<stop  offset="0.6654" style="stop-color:#00A6DD"/>
				<stop  offset="0.8129" style="stop-color:#009CD5"/>
				<stop  offset="0.9439" style="stop-color:#008CC8"/>
				<stop  offset="1" style="stop-color:#0083C0"/>
			</linearGradient>
			<path class="st10" d="M153.9,87.2H81.2c-1.5,0-2.7,1.2-2.7,2.7v48.9c0,1.5,1.2,2.7,2.7,2.7h28.7v3.4h-6.7v5.6h27.4V145h-6.3v-3.4
				h29.6c1.5,0,2.7-1.2,2.7-2.7V89.9C156.6,88.4,155.4,87.2,153.9,87.2z"/>
			<rect x="83.5" y="91.9" class="st6" width="68" height="44.3"/>
			<linearGradient id="SVGID_3_" gradientUnits="userSpaceOnUse" x1="94.1553" y1="114.033" x2="140.8532" y2="114.033">
				<stop  offset="0.4676" style="stop-color:#00A9DF"/>
				<stop  offset="0.6654" style="stop-color:#00A6DD"/>
				<stop  offset="0.8129" style="stop-color:#009CD5"/>
				<stop  offset="0.9439" style="stop-color:#008CC8"/>
				<stop  offset="1" style="stop-color:#0083C0"/>
			</linearGradient>
			<path class="st11" d="M135.2,121.3H99.8c-3.1,0-5.7-2.6-5.7-5.7v-3.3c0-3.1,2.6-5.7,5.7-5.7h35.4c3.1,0,5.7,2.6,5.7,5.7v3.3
				C140.9,118.8,138.3,121.3,135.2,121.3z"/>
			<g>
				<g>
					<g>
						<path class="st6" d="M98.5,116.2l2.4-5.1h0.1l2.4,5.1h-0.1l-0.8-1.6h-3.1l-0.8,1.6H98.5z M99.5,114.4h2.9l-1.5-3.1L99.5,114.4
							z"/>
						<path class="st6" d="M103.8,116.4h-0.7l-0.8-1.6h-2.8l-0.8,1.6h-0.7l2.6-5.5h0.1l0.1-0.2l0.1,0.2h0.1L103.8,116.4z
							 M99.9,114.2h2.2l-1.1-2.3L99.9,114.2z"/>
					</g>
					<g>
						<path class="st6" d="M104.7,111.1h0.1v3.1c0,1,0.8,1.9,1.9,1.9c1,0,1.9-0.8,1.9-1.8v-3.1h0.1v3.1c0,1.1-0.9,2-2,2
							c-1.1,0-2-0.9-2-2V111.1z"/>
						<path class="st6" d="M106.7,116.4c-1.2,0-2.2-1-2.2-2.2v-3.3h0.6v3.3c0,0.9,0.7,1.6,1.6,1.6c0.9,0,1.6-0.7,1.6-1.6v-3.3h0.6
							v3.3C108.9,115.4,107.9,116.4,106.7,116.4z"/>
					</g>
					<g>
						<path class="st6" d="M114.5,115.4c-0.5,0.5-1.1,0.7-1.8,0.7c-1.4,0-2.5-1.1-2.5-2.5s1.1-2.5,2.5-2.5c0.7,0,1.3,0.3,1.8,0.7
							l-0.1,0.1c-0.4-0.4-1-0.7-1.7-0.7c-1.3,0-2.4,1.1-2.4,2.4s1.1,2.4,2.4,2.4c0.7,0,1.3-0.3,1.7-0.7L114.5,115.4z"/>
						<path class="st6" d="M112.7,116.4c-1.5,0-2.8-1.2-2.8-2.8c0-1.5,1.2-2.8,2.8-2.8c0.7,0,1.4,0.3,1.9,0.8l0.2,0.2l-0.4,0.4
							l-0.2-0.2c-0.4-0.4-0.9-0.6-1.5-0.6c-1.2,0-2.2,1-2.2,2.2c0,1.2,1,2.2,2.2,2.2c0.6,0,1.1-0.2,1.5-0.6l0.2-0.2l0.4,0.5
							l-0.2,0.2C114.2,116.1,113.5,116.4,112.7,116.4z"/>
					</g>
					<g>
						<path class="st6" d="M120,111.1v0.1H118v4.9h-0.1v-4.9H116v-0.1H120z"/>
						<polygon class="st6" points="118.3,116.4 117.7,116.4 117.7,111.5 115.7,111.5 115.7,110.9 120.2,110.9 120.2,111.5 
							118.3,111.5 						"/>
					</g>
					<g>
						<path class="st6" d="M121.9,116.2v-5.1h0.1v5.1H121.9z"/>
						<rect x="121.6" y="110.9" class="st6" width="0.6" height="5.5"/>
					</g>
					<g>
						<path class="st6" d="M126.5,111.1c1.4,0,2.5,1.1,2.5,2.5c0,1.4-1.1,2.5-2.5,2.5c-1.4,0-2.5-1.1-2.5-2.5
							C124,112.2,125.1,111.1,126.5,111.1z M126.5,116c1.3,0,2.4-1.1,2.4-2.4c0-1.3-1.1-2.4-2.4-2.4c-1.3,0-2.4,1.1-2.4,2.4
							C124.1,115,125.2,116,126.5,116z"/>
						<path class="st6" d="M126.5,116.4c-1.5,0-2.8-1.2-2.8-2.8c0-1.5,1.2-2.8,2.8-2.8c1.5,0,2.8,1.2,2.8,2.8
							C129.3,115.2,128.1,116.4,126.5,116.4z M126.5,111.5c-1.2,0-2.2,0.9-2.2,2.2c0,1.2,0.9,2.2,2.2,2.2c1.2,0,2.2-1,2.2-2.2
							C128.7,112.4,127.7,111.5,126.5,111.5z"/>
					</g>
					<g>
						<path class="st6" d="M131,111.2v4.9h-0.1v-5.1h0.2l3.9,4.9v-4.9h0.1v5.1h-0.2L131,111.2z"/>
						<polygon class="st6" points="135.2,116.7 135,116.4 134.8,116.4 131.2,111.9 131.2,116.4 130.6,116.4 130.6,110.9 
							130.7,110.9 130.7,110.5 131,110.9 131.2,110.9 134.7,115.3 134.7,110.9 135.3,110.9 135.3,116.4 135.2,116.4 						"/>
					</g>
				</g>
			</g>
			<polygon class="st7" points="125.8,71.1 126.2,76.9 138.3,64.5 137.9,49.3 146.7,49.3 146.7,70.7 138.3,85.2 104.2,85.2 
				104.2,81.9 117.5,77.3 117.5,70.9 			"/>
			<path class="st12" d="M141.1,85.2c1.8-1.6,7.6-13.4,7.6-13.4v-32h7.8v12.6l-1.2,1.9l1.2,1.6l0.7,17.6l-6.9,11.7H141.1z"/>
			<path class="st13" d="M109.4,56c0.1-0.4-11.6-0.1-10.4,10.9c0.4,3.9,1.5,5.4,4.7,7.6l0.1,5.1l8.4-2.6l1-4.4
				C113.2,72.6,106,68.1,109.4,56z"/>
			<path class="st7" d="M134.5,39.6c0,0,0.6,3.8,2.9,5.5l1.5,1.3v1h7l0.6-16.8c0,0-0.9-1-1.3,0.1c0,0-0.5-1.3-1.9-0.3
				c0,0-0.8-1.2-1.7,0.1c0,0-1.6-1.2-2-0.1c0,0-1.4-0.9-1.6,0.5l-0.1,10c0,0-2-1.8-2.5-3.2C135.2,37,134,37.8,134.5,39.6z"/>
			<g>
				<rect x="85.6" y="56" class="st13" width="7.3" height="19.1"/>
				<path class="st13" d="M102.4,80.2c0.3,0.7,0.1,5,0.1,5h-9.9l-7-10.2l7.3-4.5L102.4,80.2z"/>
				<path class="st13" d="M94.9,47.3c0,0-0.5,2.9-2.2,4.3l-1.2,1v0.8H86l-0.4-13.1c0,0,0.7-0.8,1,0.1c0,0,0.4-1,1.5-0.2
					c0,0,0.7-1,1.3,0.1c0,0,1.2-1,1.6-0.1c0,0,1.1-0.7,1.3,0.4l0.1,7.8c0,0,1.5-1.4,1.9-2.5C94.4,45.2,95.3,45.9,94.9,47.3z"/>
			</g>
		</g>
		<ellipse class="st7" cx="121.7" cy="61.7" rx="8.9" ry="11.5"/>
		<polygon class="st14" points="145.3,49.3 145.3,69.8 136.4,85.2 138.3,85.2 146.7,70.7 146.7,49.3 		"/>
		<path class="st14" d="M144.9,47.4c0.2-0.8,0.3-16.7,0.3-16.7s0.6-1.2,1.3-0.1l-0.6,16.8H144.9z"/>
		<polygon class="st15" points="155.1,39.8 155.5,51.7 154.2,54.3 155.5,55.9 155.5,72.4 148.1,85.2 150.3,85.2 157.1,73.5 
			156.6,55.5 155.6,54.3 156.5,52.4 156.5,39.8 		"/>
		<ellipse class="st16" cx="121.6" cy="62" rx="7.3" ry="9.4"/>
		<path class="st7" d="M117.5,52.7c0,0,3.2,8.8,11.7,8.8v-4.2l-2.9-4.6l-3.2-1.1h-4L117.5,52.7z"/>
		<path class="st7" d="M120.3,55c0,0-4.7,4.3-6,3.1s-0.3-0.2-0.3-0.2l3.5-5.2L120.3,55z"/>
		<rect x="139.1" y="50.2" class="st16" width="6.2" height="4.2"/>
		<rect x="87" y="150.3" class="st17" width="61.1" height="0.5"/>
		<rect x="40.7" y="104.3" class="st18" width="0.5" height="3.6"/>
		<rect x="83.5" y="91.9" class="st17" width="68" height="0.5"/>
		<path class="st17" d="M78.7,139.8c0,0,0.5,1.8,2.9,1.8H153c0,0,3.6,0.6,3.6-2.7c0,0-0.2,1.9-5.7,1.8H82.2
			C82.2,140.6,80.4,140.7,78.7,139.8z"/>
		<rect x="69.1" y="116.1" class="st19" width="2.9" height="1.6"/>
		<rect x="72" y="113.8" class="st20" width="4.3" height="2.7"/>
		<path class="st21" d="M40.9,118.1l14.7-0.5v-4.5l11.3,6.7h2.2v-1.5h-1.7l-12.6-8.2v5.9l-12.5,0.7
			C42.3,116.8,40.9,117.2,40.9,118.1z"/>
		<g>
			<rect x="41.1" y="107.2" class="st22" width="18.5" height="0.7"/>
			<rect x="45.7" y="107.9" class="st22" width="0.7" height="8.6"/>
			<rect x="46.1" y="135.6" class="st22" width="0.5" height="3.6"/>
			<rect x="46" y="138.8" class="st22" width="8.9" height="0.4"/>
		</g>
	</g>
	<g>
		<g>
			<g>
				<path class="st6" d="M43.3,85.5c0,1.2-0.7,2.2-1.8,2.6c1.4,0.3,2.4,1.6,2.4,3.1c0,1.8-1.4,3.2-3.2,3.2h-6.1V82.7h5.8
					C42,82.7,43.3,84,43.3,85.5z M40.4,88.1c1.4,0,2.5-1.1,2.5-2.5c0-1.4-1.1-2.5-2.5-2.5H35v5.1H40.4z M35,88.4v5.7h5.8
					c1.6,0,2.9-1.3,2.9-2.9c0-1.6-1.3-2.9-2.9-2.9H35z"/>
				<path class="st6" d="M40.7,95.4h-7.1V81.7h6.8c2.1,0,3.8,1.7,3.8,3.8c0,0.9-0.3,1.8-0.9,2.5c1,0.8,1.6,1.9,1.6,3.2
					C44.9,93.5,43,95.4,40.7,95.4z M35.9,93.1h4.8c1.1,0,1.9-0.9,1.9-1.9s-0.9-1.9-1.9-1.9h-4.8V93.1z M35.9,87.1h4.5
					c0.9,0,1.6-0.7,1.6-1.6c0-0.9-0.7-1.6-1.6-1.6h-4.5V87.1z"/>
			</g>
			<g>
				<path class="st6" d="M48.1,94.4V82.7h0.3v11.8H48.1z"/>
				<rect x="47.1" y="81.7" class="st6" width="2.2" height="13.7"/>
			</g>
			<g>
				<path class="st6" d="M53.7,82.7h4.4c3.2,0,5.9,2.6,5.9,5.9c0,3.2-2.6,5.9-5.9,5.9h-4.4V82.7z M58.1,83H54v11.1h4.1
					c3.1,0,5.6-2.5,5.6-5.6C63.7,85.5,61.2,83,58.1,83z"/>
				<path class="st6" d="M58.1,95.4h-5.4V81.7h5.4c3.8,0,6.8,3.1,6.8,6.8C64.9,92.3,61.9,95.4,58.1,95.4z M55,93.1h3.1
					c2.5,0,4.6-2.1,4.6-4.6c0-2.5-2.1-4.6-4.6-4.6H55V93.1z"/>
			</g>
		</g>
	</g>
</g>
</svg>
