<?xml version="1.0" encoding="utf-8"?>
<!-- Generator: Adobe Illustrator 19.2.0, SVG Export Plug-In . SVG Version: 6.00 Build 0)  -->
<svg version="1.1" id="Слой_1" xmlns="http://www.w3.org/2000/svg" xmlns:xlink="http://www.w3.org/1999/xlink" x="0px" y="0px"
	 viewBox="0 0 212 206" style="enable-background:new 0 0 212 206;" xml:space="preserve">
<style type="text/css">
	.st0{opacity:0.77;fill:#EDEDED;enable-background:new    ;}
	.st1{fill:url(#SVGID_1_);}
	.st2{fill:url(#SVGID_2_);}
	.st3{fill:#FF6E4F;}
	.st4{fill:#31A9D8;}
	.st5{fill:#B8B8B8;}
	.st6{fill:#D9D9D9;}
	.st7{fill:url(#SVGID_3_);}
	.st8{opacity:0.39;fill:#FFFFFF;enable-background:new    ;}
	.st9{fill:#EDEDED;}
	.st10{fill:#0083C0;}
	.st11{fill:url(#SVGID_4_);}
	.st12{fill:#FFFFFF;}
	.st13{fill:#5E5E5E;}
	.st14{fill:url(#SVGID_5_);}
	.st15{fill:url(#SVGID_6_);}
	.st16{fill:#005D8F;}
</style>
<g>
	<g>
		<path class="st0" d="M174,101.8c0,39.9-32,72.2-71.9,72.2s-72.5-32.3-72.5-72.2s32.3-72.2,72.2-72.2S174,61.9,174,101.8z"/>
	</g>
	<g>
		
			<linearGradient id="SVGID_1_" gradientUnits="userSpaceOnUse" x1="46.4" y1="105.9" x2="154.9" y2="105.9" gradientTransform="matrix(1 0 0 -1 0 208)">
			<stop  offset="8.171237e-03" style="stop-color:#0083C0"/>
			<stop  offset="0.1354" style="stop-color:#0092CC"/>
			<stop  offset="0.3249" style="stop-color:#00A3DA"/>
			<stop  offset="0.4676" style="stop-color:#00A9DF"/>
			<stop  offset="0.6654" style="stop-color:#00A6DD"/>
			<stop  offset="0.8129" style="stop-color:#009CD5"/>
			<stop  offset="0.9439" style="stop-color:#008CC8"/>
			<stop  offset="1" style="stop-color:#0083C0"/>
		</linearGradient>
		<path class="st1" d="M140.8,152.6H60.6c-7.8,0-14.2-6.4-14.2-14.2V65.8c0-7.8,6.4-14.2,14.2-14.2h80.1c7.8,0,14.2,6.4,14.2,14.2
			v72.7C154.9,146.3,148.5,152.6,140.8,152.6z"/>
		<g>
			<g>
				
					<linearGradient id="SVGID_2_" gradientUnits="userSpaceOnUse" x1="46.4" y1="108.8" x2="154.9" y2="108.8" gradientTransform="matrix(1 0 0 -1 0 208)">
					<stop  offset="0" style="stop-color:#C2C2C2"/>
					<stop  offset="0.4676" style="stop-color:#F2F2F2"/>
					<stop  offset="0.6305" style="stop-color:#EFEFEF"/>
					<stop  offset="0.7521" style="stop-color:#E6E6E6"/>
					<stop  offset="0.86" style="stop-color:#D6D6D6"/>
					<stop  offset="0.9498" style="stop-color:#C2C2C2"/>
				</linearGradient>
				<path class="st2" d="M140.8,149.7H60.6c-7.8,0-14.2-6.4-14.2-14.2V62.9c0-7.8,6.4-14.2,14.2-14.2h80.1c7.8,0,14.2,6.4,14.2,14.2
					v72.7C154.9,143.4,148.5,149.7,140.8,149.7z"/>
			</g>
		</g>
		<path class="st3" d="M154.9,65.6v-10c0-3.8-3.1-6.8-6.8-6.8H53.3c-3.8,0-6.8,3.1-6.8,6.8v10.1L154.9,65.6L154.9,65.6z"/>
	</g>
	<path class="st4" d="M140.7,76.1h-80c-2,0-3.7,1.7-3.7,3.7v8.8c0,2,1.7,3.7,3.7,3.7h80c2,0,3.7-1.7,3.7-3.7v-8.8
		C144.4,77.7,142.7,76.1,140.7,76.1z"/>
	<path class="st4" d="M140.7,99.6h-80c-2,0-3.7,1.7-3.7,3.7v8.8c0,2,1.7,3.7,3.7,3.7h80c2,0,3.7-1.7,3.7-3.7v-8.8
		C144.4,101.2,142.7,99.6,140.7,99.6z"/>
	<path class="st4" d="M140.7,124.8h-80c-2,0-3.7,1.7-3.7,3.7v8.8c0,2,1.7,3.7,3.7,3.7h80c2,0,3.7-1.7,3.7-3.7v-8.8
		C144.4,126.5,142.7,124.8,140.7,124.8z"/>
	<rect x="46.4" y="65.1" class="st5" width="108.5" height="1.4"/>
	<g>
		<circle class="st6" cx="63.5" cy="59.2" r="2"/>
		<circle class="st6" cx="68.7" cy="59.2" r="2"/>
		<circle class="st6" cx="73.9" cy="59.2" r="2"/>
	</g>
	
		<linearGradient id="SVGID_3_" gradientUnits="userSpaceOnUse" x1="5.5937" y1="106.2863" x2="198.0641" y2="106.2863" gradientTransform="matrix(1 0 0 -1 0 208)">
		<stop  offset="8.171237e-03" style="stop-color:#0083C0"/>
		<stop  offset="0.1354" style="stop-color:#0092CC"/>
		<stop  offset="0.3249" style="stop-color:#00A3DA"/>
		<stop  offset="0.4676" style="stop-color:#00A9DF"/>
		<stop  offset="0.6654" style="stop-color:#00A6DD"/>
		<stop  offset="0.8129" style="stop-color:#009CD5"/>
		<stop  offset="0.9439" style="stop-color:#008CC8"/>
		<stop  offset="1" style="stop-color:#0083C0"/>
	</linearGradient>
	<path class="st7" d="M103.5,197.2c-4.3,0-8.6-0.3-13-0.9c-25.7-3.4-48.7-16.3-64.7-36.5C10,139.8,3.1,115.1,6.4,90.1
		c3.3-24.8,16.2-47.3,36.3-63.2s45.1-23,70.5-20s48.2,15.6,64,35.7l-0.4,0.3c-15.8-20-38.4-32.6-63.7-35.5C87.9,4.3,63,11.4,43,27.2
		C23,43.1,10.1,65.4,6.9,90.1c-3.3,24.9,3.6,49.5,19.3,69.4c15.9,20.1,38.7,33,64.4,36.3c25.8,3.4,50.9-3.4,70.8-19.1
		c15-11.9,25.9-27.7,31.7-45.8c3.8-12.1,5.2-24.7,4.1-37.4h0.5c1.1,12.7-0.3,25.4-4.1,37.6c-5.8,18.2-16.8,34.2-31.8,46.1
		C145,190.2,124.7,197.2,103.5,197.2z"/>
	<path class="st8" d="M78.8,149.7h63.8c0,0,12.3-1.6,12.3-14.2v-69L78.8,149.7z"/>
	<path class="st9" d="M139.5,91H61.6c-1.6,0-2.8-1.3-2.8-2.8v-7.7c0-1.6,1.3-2.8,2.8-2.8h77.9c1.6,0,2.8,1.3,2.8,2.8v7.7
		C142.3,89.7,141.1,91,139.5,91z"/>
	<path class="st9" d="M139.5,114.5H61.6c-1.6,0-2.8-1.3-2.8-2.8V104c0-1.6,1.3-2.8,2.8-2.8h77.9c1.6,0,2.8,1.3,2.8,2.8v7.7
		C142.3,113.2,141.1,114.5,139.5,114.5z"/>
	<path class="st9" d="M139.5,139.6H61.6c-1.6,0-2.8-1.3-2.8-2.8v-7.7c0-1.6,1.3-2.8,2.8-2.8h77.9c1.6,0,2.8,1.3,2.8,2.8v7.7
		C142.4,138.4,141.1,139.6,139.5,139.6z"/>
	<g>
		<g>
			<g>
				<g>
					<path class="st10" d="M79.1,82.4h3.1v0.1L79.1,82.4l0.1,2.4H82v0.1h-2.8v2.4h3v0.1h-3.1V82.4z"/>
					<polygon class="st10" points="82.4,87.6 78.9,87.6 78.9,82.2 82.4,82.2 82.4,82.7 79.4,82.7 79.4,84.6 82.2,84.6 82.2,85.1 
						79.4,85.1 79.4,87.1 82.4,87.1 					"/>
				</g>
				<g>
					<path class="st10" d="M89.3,82.5L86.8,85l-2.5-2.5v4.9h-0.1v-5.1h0.2l2.5,2.5l2.5-2.5h0.2v5.1h-0.1v-4.9H89.3z"/>
					<polygon class="st10" points="89.6,87.6 89.1,87.6 89.1,83 86.7,85.3 84.4,83 84.4,87.6 83.9,87.6 83.9,82.2 84,82.2 84,82.1 
						84.1,82.2 84.3,82.2 86.7,84.6 89.1,82.2 89.3,82.2 89.4,82.1 89.4,82.2 89.6,82.2 					"/>
				</g>
				<g>
					<path class="st10" d="M90.7,87.5l2.4-5.1h0.1l2.4,5.1h-0.1l-0.8-1.6h-3.1L90.7,87.5L90.7,87.5z M91.7,85.7h2.9l-1.5-3.1
						L91.7,85.7z"/>
					<path class="st10" d="M95.9,87.6h-0.5L94.6,86h-2.8L91,87.6h-0.5l2.5-5.4h0.1v-0.1v0.1h0.1L95.9,87.6z M92,85.5h2.4L93.2,83
						L92,85.5z"/>
				</g>
				<g>
					<path class="st10" d="M97.2,87.5v-5.1h0.1L97.2,87.5L97.2,87.5z"/>
					<rect x="97" y="82.2" class="st10" width="0.5" height="5.4"/>
				</g>
				<g>
					<path class="st10" d="M99.8,87.3h3v0.1h-3.2v-5.1h0.1L99.8,87.3L99.8,87.3z"/>
					<polygon class="st10" points="103,87.6 99.4,87.6 99.4,82.2 99.9,82.2 99.9,87.1 103,87.1 					"/>
				</g>
			</g>
			<g>
				<g>
					<path class="st10" d="M80.6,106.2L80.6,106.2l0.1,3.1c0,1,0.8,1.9,1.9,1.9c1,0,1.9-0.8,1.9-1.8v-3.1h0.1v3.1c0,1.1-0.9,2-2,2
						s-2-0.9-2-2V106.2z"/>
					<path class="st10" d="M82.6,111.4c-1.2,0-2.1-0.9-2.1-2.1v-3.2h0.4v3.2c0,1,0.8,1.7,1.7,1.7c1,0,1.7-0.8,1.7-1.7v-3.2h0.4v3.2
						C84.7,110.5,83.8,111.4,82.6,111.4z"/>
				</g>
				<g>
					<path class="st10" d="M88.7,107.5c0-0.6-0.5-1.2-1.2-1.2c-0.6,0-1.2,0.5-1.2,1.2c0,0.6,0.5,1.2,1.2,1.2s1.3,0.6,1.3,1.3
						c0,0.7-0.6,1.3-1.3,1.3c-0.7,0-1.3-0.6-1.3-1.3h0.1c0,0.6,0.5,1.2,1.2,1.2c0.6,0,1.2-0.5,1.2-1.2c0-0.6-0.5-1.2-1.2-1.2
						s-1.3-0.6-1.3-1.3c0-0.7,0.6-1.3,1.3-1.3C88.2,106.2,88.8,106.8,88.7,107.5L88.7,107.5z"/>
					<path class="st10" d="M87.5,111.4c-0.8,0-1.4-0.6-1.4-1.4v-0.1h0.4v0.1c0,0.6,0.5,1.1,1,1.1s1-0.5,1-1c0-0.6-0.5-1.1-1-1.1
						c-0.8,0-1.4-0.6-1.4-1.4s0.6-1.4,1.4-1.4s1.4,0.6,1.4,1.4v0.1h-0.4v-0.1c0-0.6-0.5-1-1-1s-1,0.5-1,1c0,0.6,0.5,1,1,1
						c0.8,0,1.4,0.6,1.4,1.4C89,110.8,88.3,111.4,87.5,111.4z"/>
				</g>
				<g>
					<path class="st10" d="M90.7,106.2h3.1v0.1L90.7,106.2l0.1,2.4h2.8v0.1h-2.8v2.4h3v0.1h-3.1V106.2z"/>
					<polygon class="st10" points="93.9,111.4 90.5,111.4 90.5,106.1 93.9,106.1 93.9,106.5 90.9,106.5 90.9,108.5 93.7,108.5 
						93.7,108.9 90.9,108.9 90.9,111 93.9,111 					"/>
				</g>
				<g>
					<path class="st10" d="M97.2,109.2h-1.4v2.1h-0.1v-5.1h1.7c0.8,0,1.5,0.7,1.5,1.5s-0.7,1.5-1.5,1.5l1.2,2.1h-0.2L97.2,109.2z
						 M97.3,106.4h-1.6v2.7h1.6c0.7,0,1.4-0.6,1.4-1.4C98.7,107,98.1,106.4,97.3,106.4z"/>
					<path class="st10" d="M98.7,111.4h-0.4l-1.2-2.1h-1.3v2.1h-0.4v-5.3h1.8c0.9,0,1.6,0.7,1.6,1.6c0,0.8-0.6,1.5-1.4,1.6
						L98.7,111.4z M95.9,109h1.5c0.7,0,1.2-0.6,1.2-1.2c0-0.7-0.6-1.2-1.2-1.2h-1.5V109z"/>
				</g>
				<g>
					<path class="st10" d="M100.7,106.4v4.9h-0.1v-5.1h0.2l3.9,4.9v-4.9h0.1v5.1h-0.2L100.7,106.4z"/>
					<polygon class="st10" points="104.8,111.5 104.8,111.4 104.6,111.4 100.8,106.7 100.8,111.4 100.5,111.4 100.5,106.1 
						100.6,106.1 100.6,106 100.7,106.1 100.9,106.1 104.6,110.8 104.6,106.1 105,106.1 105,111.4 104.8,111.4 					"/>
				</g>
				<g>
					<path class="st10" d="M106.1,111.3l2.4-5.1h0.1l2.4,5.1h-0.1l-0.8-1.6H107L106.1,111.3L106.1,111.3z M107.1,109.5h2.9l-1.5-3.1
						L107.1,109.5z"/>
					<path class="st10" d="M111.2,111.4h-0.4l-0.8-1.6h-2.9l-0.8,1.6h-0.4l2.5-5.3h0.3L111.2,111.4z M107.3,109.4h2.5l-1.3-2.7
						L107.3,109.4z"/>
				</g>
				<g>
					<path class="st10" d="M117.7,106.4l-2.5,2.5l-2.5-2.5v4.9h-0.1v-5.1h0.2l2.5,2.5l2.5-2.5h0.2v5.1h-0.1v-4.9H117.7z"/>
					<polygon class="st10" points="117.9,111.4 117.5,111.4 117.5,106.6 115.1,109.1 112.7,106.6 112.7,111.4 112.3,111.4 
						112.3,106.1 112.5,106.1 112.5,106.1 112.5,106.1 112.7,106.1 115.1,108.5 117.6,106.1 117.7,106.1 117.8,106.1 117.8,106.1 
						117.9,106.1 					"/>
				</g>
				<g>
					<path class="st10" d="M119.7,106.2h3.1v0.1L119.7,106.2l0.1,2.4h2.8v0.1h-2.8v2.4h3v0.1h-3.1V106.2z"/>
					<polygon class="st10" points="123,111.4 119.6,111.4 119.6,106.1 123,106.1 123,106.5 120,106.5 120,108.5 122.8,108.5 
						122.8,108.9 120,108.9 120,111 123,111 					"/>
				</g>
			</g>
			<g>
				<g>
					<path class="st10" d="M82.5,132.1l0.1,0.1c0,0.1,0,0.1-0.1,0.1l-0.5,0.5l0.5,0.5l0.1,0.1c0,0.1,0,0.1-0.1,0.1l-0.1,0.1
						c-0.1,0-0.1,0-0.1-0.1l-0.5-0.5l-0.5,0.5l-0.1,0.1c-0.1,0-0.1,0-0.1-0.1l-0.1-0.1c0-0.1,0-0.1,0.1-0.1l0.5-0.5l-0.5-0.5
						l-0.1-0.1c0-0.1,0-0.1,0.1-0.1l0.1-0.1c0.1,0,0.1,0,0.1,0.1l0.5,0.5l0.5-0.5l0.1-0.1C82.4,132.1,82.4,132.1,82.5,132.1z"/>
					<path class="st10" d="M82.3,134c-0.1,0-0.2,0-0.3-0.1l-0.4-0.4l-0.3,0.3c-0.2,0.2-0.4,0.2-0.6,0c-0.1-0.1-0.1-0.2-0.1-0.3
						s0-0.2,0.1-0.3l0.3-0.3l-0.3-0.3c-0.1-0.1-0.1-0.2-0.1-0.3s0-0.2,0.1-0.3c0.2-0.2,0.5-0.2,0.6,0l0.3,0.4L82,132
						c0.2-0.2,0.5-0.2,0.6,0c0.1,0.1,0.1,0.2,0.1,0.3s0,0.2-0.1,0.3l-0.3,0.3l0.3,0.3c0.1,0.1,0.1,0.2,0.1,0.3s0,0.2-0.1,0.3
						C82.6,134,82.5,134,82.3,134z M82.3,132.3l0.2-0.2L82.3,132.3z"/>
				</g>
				<g>
					<path class="st10" d="M86.6,132.1l0.1,0.1c0,0.1,0,0.1-0.1,0.1l-0.5,0.5l0.5,0.5l0.1,0.1c0,0.1,0,0.1-0.1,0.1l-0.1,0.1
						c-0.1,0-0.1,0-0.1-0.1l-0.5-0.5l-0.5,0.5l-0.1,0.1c-0.1,0-0.1,0-0.1-0.1l-0.1-0.1c0-0.1,0-0.1,0.1-0.1l0.5-0.5l-0.5-0.5
						l-0.1-0.1c0-0.1,0-0.1,0.1-0.1l0.1-0.1c0.1,0,0.1,0,0.1,0.1l0.5,0.5l0.5-0.5l0.1-0.1C86.5,132.1,86.6,132.1,86.6,132.1z"/>
					<path class="st10" d="M86.5,134c-0.1,0-0.2,0-0.3-0.1l-0.4-0.4l-0.3,0.3c-0.2,0.2-0.4,0.2-0.6,0c-0.1-0.1-0.1-0.2-0.1-0.3
						s0-0.2,0.1-0.3l0.3-0.3l-0.3-0.3c-0.1-0.1-0.1-0.2-0.1-0.3s0-0.2,0.1-0.3c0.2-0.2,0.5-0.2,0.6,0l0.3,0.4l0.3-0.3
						c0.2-0.2,0.5-0.2,0.6,0l0,0c0.1,0.1,0.1,0.2,0.1,0.3s0,0.2-0.1,0.3l-0.3,0.3l0.3,0.3c0.1,0.1,0.1,0.2,0.1,0.3s0,0.2-0.1,0.3
						C86.7,134,86.6,134,86.5,134z"/>
				</g>
				<g>
					<path class="st10" d="M90.7,132.1l0.1,0.1c0,0.1,0,0.1-0.1,0.1l-0.5,0.5l0.5,0.5l0.1,0.1c0,0.1,0,0.1-0.1,0.1l-0.1,0.1
						c-0.1,0-0.1,0-0.1-0.1L90,133l-0.5,0.5l-0.1,0.1c-0.1,0-0.1,0-0.1-0.1l-0.1-0.1c0-0.1,0-0.1,0.1-0.1l0.5-0.5l-0.5-0.5l-0.1-0.1
						c0-0.1,0-0.1,0.1-0.1l0.1-0.1c0.1,0,0.1,0,0.1,0.1l0.5,0.5l0.5-0.5l0.1-0.1C90.6,132.1,90.7,132.1,90.7,132.1z"/>
					<path class="st10" d="M90.6,134c-0.1,0-0.2,0-0.3-0.1l-0.4-0.4l-0.3,0.3c-0.2,0.2-0.4,0.2-0.6,0c-0.1-0.1-0.1-0.2-0.1-0.3
						s0-0.2,0.1-0.3l0.3-0.3l-0.3-0.3c-0.1-0.1-0.1-0.2-0.1-0.3s0-0.2,0.1-0.3c0.2-0.2,0.5-0.2,0.6,0l0.3,0.4l0.3-0.3
						c0.2-0.2,0.5-0.2,0.6,0c0.1,0.1,0.1,0.2,0.1,0.3s0,0.2-0.1,0.3l-0.3,0.3l0.3,0.3c0.1,0.1,0.1,0.2,0.1,0.3s0,0.2-0.1,0.3
						C90.8,134,90.7,134,90.6,134z M90.5,132.3L90.5,132.3l0.2-0.2L90.5,132.3z"/>
				</g>
				<g>
					<path class="st10" d="M94.8,132.1l0.1,0.1c0,0.1,0,0.1-0.1,0.1l-0.5,0.5l0.5,0.5l0.1,0.1c0,0.1,0,0.1-0.1,0.1l-0.1,0.1
						c-0.1,0-0.1,0-0.1-0.1l-0.5-0.5l-0.5,0.5l-0.1,0.1c-0.1,0-0.1,0-0.1-0.1l-0.1-0.1c0-0.1,0-0.1,0.1-0.1l0.5-0.5l-0.5-0.5
						l-0.1-0.1c0-0.1,0-0.1,0.1-0.1l0.1-0.1c0.1,0,0.1,0,0.1,0.1l0.5,0.5l0.5-0.5l0.1-0.1C94.7,132.1,94.8,132.1,94.8,132.1z"/>
					<path class="st10" d="M94.7,134c-0.1,0-0.2,0-0.3-0.1l-0.4-0.4l-0.3,0.3c-0.2,0.2-0.4,0.2-0.6,0c-0.1-0.1-0.1-0.2-0.1-0.3
						s0-0.2,0.1-0.3l0.3-0.3l-0.3-0.3c-0.1-0.1-0.1-0.2-0.1-0.3s0-0.2,0.1-0.3c0.2-0.2,0.5-0.2,0.6,0l0.3,0.4l0.3-0.3
						c0.2-0.2,0.5-0.2,0.6,0l0,0c0.1,0.1,0.1,0.2,0.1,0.3s0,0.2-0.1,0.3l-0.3,0.3l0.3,0.3c0.1,0.1,0.1,0.2,0.1,0.3s0,0.2-0.1,0.3
						C94.9,134,94.8,134,94.7,134z"/>
				</g>
				<g>
					<path class="st10" d="M98.9,132.1l0.1,0.1c0,0.1,0,0.1-0.1,0.1l-0.5,0.5l0.5,0.5l0.1,0.1c0,0.1,0,0.1-0.1,0.1l-0.1,0.1
						c-0.1,0-0.1,0-0.1-0.1l-0.5-0.5l-0.5,0.5l-0.1,0.1c-0.1,0-0.1,0-0.1-0.1l-0.1-0.1c0-0.1,0-0.1,0.1-0.1l0.5-0.5l-0.5-0.5
						l-0.1-0.1c0-0.1,0-0.1,0.1-0.1l0.1-0.1c0.1,0,0.1,0,0.1,0.1l0.5,0.5l0.5-0.5l0.1-0.1C98.8,132.1,98.9,132.1,98.9,132.1z"/>
					<path class="st10" d="M98.8,134c-0.1,0-0.2,0-0.3-0.1l-0.4-0.4l-0.3,0.3c-0.2,0.2-0.4,0.2-0.6,0c-0.1-0.1-0.1-0.2-0.1-0.3
						s0-0.2,0.1-0.3l0.3-0.3l-0.3-0.3c-0.1-0.1-0.1-0.2-0.1-0.3s0-0.2,0.1-0.3c0.2-0.2,0.5-0.2,0.6,0l0.3,0.4l0.3-0.3
						c0.2-0.2,0.5-0.2,0.6,0c0.1,0.1,0.1,0.2,0.1,0.3s0,0.2-0.1,0.3l-0.3,0.3l0.3,0.3c0.1,0.1,0.1,0.2,0.1,0.3s0,0.2-0.1,0.3
						C99,134,98.9,134,98.8,134z M98.7,132.3l0.2-0.2L98.7,132.3z"/>
				</g>
				<g>
					<path class="st10" d="M103,132.1l0.1,0.1c0,0.1,0,0.1-0.1,0.1l-0.5,0.5l0.5,0.5l0.1,0.1c0,0.1,0,0.1-0.1,0.1l-0.1,0.1
						c-0.1,0-0.1,0-0.1-0.1l-0.5-0.5l-0.5,0.5l-0.1,0.1c-0.1,0-0.1,0-0.1-0.1l-0.1-0.1c0-0.1,0-0.1,0.1-0.1l0.5-0.5l-0.5-0.5
						l-0.1-0.1c0-0.1,0-0.1,0.1-0.1l0.1-0.1c0.1,0,0.1,0,0.1,0.1l0.5,0.5l0.5-0.5l0.1-0.1C102.9,132.1,103,132.1,103,132.1z"/>
					<path class="st10" d="M102.9,134c-0.1,0-0.2,0-0.3-0.1l-0.4-0.4l-0.3,0.3c-0.2,0.2-0.4,0.2-0.6,0c-0.1-0.1-0.1-0.2-0.1-0.3
						s0-0.2,0.1-0.3l0.3-0.3l-0.3-0.3c-0.1-0.1-0.1-0.2-0.1-0.3s0-0.2,0.1-0.3c0.2-0.2,0.5-0.2,0.6,0l0.3,0.4l0.3-0.3
						c0.2-0.2,0.5-0.2,0.6,0c0.1,0.1,0.1,0.2,0.1,0.3s0,0.2-0.1,0.3l-0.3,0.3l0.3,0.3c0.1,0.1,0.1,0.2,0.1,0.3s0,0.2-0.1,0.3
						C103.1,134,103,134,102.9,134z M102.9,132.3l0.2-0.2L102.9,132.3z"/>
				</g>
				<g>
					<path class="st10" d="M107.1,132.1l0.1,0.1c0,0.1,0,0.1-0.1,0.1l-0.5,0.5l0.5,0.5l0.1,0.1c0,0.1,0,0.1-0.1,0.1l-0.1,0.1
						c-0.1,0-0.1,0-0.1-0.1l-0.5-0.5l-0.5,0.5l-0.1,0.1c-0.1,0-0.1,0-0.1-0.1l-0.1-0.1c0-0.1,0-0.1,0.1-0.1l0.5-0.5l-0.5-0.5
						l-0.1-0.1c0-0.1,0-0.1,0.1-0.1l0.1-0.1c0.1,0,0.1,0,0.1,0.1l0.5,0.5l0.5-0.5l0.1-0.1C107.1,132.1,107.1,132.1,107.1,132.1z"/>
					<path class="st10" d="M107,134c-0.1,0-0.2,0-0.3-0.1l-0.4-0.4l-0.3,0.3c-0.2,0.2-0.4,0.2-0.6,0c-0.1-0.1-0.1-0.2-0.1-0.3
						s0-0.2,0.1-0.3l0.3-0.3l-0.3-0.3c-0.1-0.1-0.1-0.2-0.1-0.3s0-0.2,0.1-0.3c0.2-0.2,0.5-0.2,0.6,0l0.3,0.4l0.3-0.3
						c0.2-0.2,0.5-0.2,0.6,0l0,0c0.1,0.1,0.1,0.2,0.1,0.3s0,0.2-0.1,0.3l-0.3,0.3l0.3,0.3c0.1,0.1,0.1,0.2,0.1,0.3s0,0.2-0.1,0.3
						C107.2,134,107.1,134,107,134z"/>
				</g>
			</g>
			<g>
				<g>
					<g>
						<path class="st10" d="M73.1,113.2h-9.8V112c0-1.2,0.6-1.5,0.6-1.5l3.2-1.4c0.4,0,0.7,0.1,0.9,0.4c0.6,0.7,0.3,2,0.3,2
							l-0.5-0.1c0.1-0.3,0.1-1.2-0.2-1.7c-0.1-0.1-0.3-0.2-0.5-0.2l-3.1,1.3c0,0-0.3,0.2-0.3,1.1v0.7h8.8v-1.4l0,0
							c0,0-0.1-0.5-1.2-0.9l-1.8-0.7l0.2-0.4l1.8,0.7c1.4,0.5,1.5,1.3,1.5,1.4L73.1,113.2L73.1,113.2z"/>
						<path class="st10" d="M73.2,113.3h-10V112c0-1.3,0.6-1.6,0.7-1.6l3.3-1.4c0.4,0,0.8,0.1,1,0.4c0.6,0.7,0.4,2.1,0.4,2.1v0.1
							l-0.7-0.1v-0.1c0-0.3,0.1-1.2-0.2-1.6c-0.1-0.1-0.2-0.2-0.4-0.2l-3.1,1.3l0,0c0,0-0.3,0.2-0.3,1v0.6h8.6v-1.3
							c0-0.1-0.1-0.5-1.1-0.8l-1.9-0.8l0.3-0.7l1.9,0.8c1.5,0.6,1.6,1.4,1.6,1.5v2.1H73.2z M63.4,113.1H73v-1.8c0,0,0-0.7-1.4-1.3
							l-1.7-0.7l-0.1,0.2l1.7,0.7c1.1,0.4,1.2,0.9,1.3,1v1.6h-9.1V112c0-0.9,0.3-1.1,0.4-1.2l3.1-1.3l0,0c0.2,0,0.4,0.1,0.6,0.3
							c0.4,0.4,0.3,1.3,0.3,1.6h0.2c0-0.3,0.1-1.3-0.3-1.8c-0.2-0.2-0.5-0.4-0.8-0.4l-3.2,1.3c0,0-0.6,0.2-0.6,1.4
							C63.4,111.9,63.4,113.1,63.4,113.1z"/>
					</g>
					<g>
						<path class="st10" d="M73.3,113.4H63.1V112c0-1.3,0.6-1.6,0.8-1.7l3.3-1.4c0.4,0,0.8,0.2,1,0.5c0.6,0.7,0.4,2,0.4,2.2v0.2
							l-0.8-0.1v-0.2c0-0.3,0.1-1.1-0.2-1.5c-0.1-0.1-0.2-0.2-0.3-0.2l-3,1.3l0,0c0,0-0.2,0.2-0.2,0.9v0.5h8.5v-1.3l0,0
							c0,0-0.1-0.4-1.1-0.8l-2-0.8l0.3-0.8l2,0.8c1.5,0.6,1.6,1.4,1.6,1.5L73.3,113.4L73.3,113.4z"/>
						<path class="st10" d="M73.4,113.5H63V112c0-1.4,0.7-1.7,0.8-1.8l3.3-1.4c0.5,0,0.9,0.2,1.1,0.5c0.6,0.8,0.4,2.1,0.4,2.3
							l-0.1,0.4l-1.1-0.2l0.1-0.4c0.1-0.4,0.1-1.1-0.2-1.4c-0.1-0.1-0.1-0.1-0.2-0.1l-3,1.3c0,0.1-0.2,0.3-0.2,0.8v0.4h8.2v-1.1
							c0-0.1-0.2-0.4-1-0.7l-2.2-0.9l0.4-1l2.1,0.9c1.6,0.6,1.7,1.5,1.7,1.6v2.3H73.4z M63.2,113.3h9.9v-2c0-0.1-0.1-0.9-1.5-1.4
							l-1.9-0.8l-0.2,0.5l1.9,0.8c0.7,0.3,1,0.6,1.1,0.8l0,0v1.5h-8.7V112c0-0.5,0.1-0.8,0.2-0.9l0,0l3.2-1.4l0,0
							c0.2,0,0.3,0.1,0.4,0.2c0.4,0.5,0.2,1.6,0.2,1.6v0.1l0.6,0.1v-0.1c0-0.1,0.2-1.4-0.3-2.1c-0.2-0.3-0.5-0.4-0.9-0.4l-3.3,1.4
							c-0.1,0-0.7,0.3-0.7,1.6L63.2,113.3L63.2,113.3z"/>
					</g>
				</g>
				<g>
					<g>
						<path class="st10" d="M68.4,107.9h-0.3c-1,0-1.8-0.8-1.8-1.8v-1.7c0-1,0.8-1.8,1.8-1.8h0.3c1,0,1.8,0.8,1.8,1.8v1.7
							C70.2,107.1,69.4,107.9,68.4,107.9z M68.1,103.1c-0.7,0-1.3,0.6-1.3,1.3v1.7c0,0.7,0.6,1.3,1.3,1.3h0.3c0.7,0,1.3-0.6,1.3-1.3
							v-1.7c0-0.7-0.6-1.3-1.3-1.3H68.1z"/>
						<path class="st10" d="M68.4,108.1h-0.3c-1.1,0-1.9-0.9-1.9-1.9v-1.7c0-1.1,0.9-1.9,1.9-1.9h0.3c1.1,0,1.9,0.9,1.9,1.9v1.7
							C70.3,107.2,69.5,108.1,68.4,108.1z M68.1,102.8c-0.9,0-1.7,0.8-1.7,1.7v1.7c0,0.9,0.8,1.7,1.7,1.7h0.3c0.9,0,1.7-0.8,1.7-1.7
							v-1.7c0-0.9-0.8-1.7-1.7-1.7H68.1z M68.4,107.6h-0.3c-0.8,0-1.4-0.6-1.4-1.4v-1.7c0-0.8,0.6-1.4,1.4-1.4h0.3
							c0.8,0,1.4,0.6,1.4,1.4v1.7C69.8,106.9,69.2,107.6,68.4,107.6z M68.1,103.3c-0.7,0-1.2,0.5-1.2,1.2v1.7c0,0.7,0.5,1.2,1.2,1.2
							h0.3c0.7,0,1.2-0.5,1.2-1.2v-1.7c0-0.7-0.5-1.2-1.2-1.2H68.1z"/>
					</g>
					<g>
						<path class="st10" d="M68.5,108.1H68c-1.1,0-1.9-0.9-1.9-1.9v-1.8c0-1.1,0.9-1.9,1.9-1.9h0.4c1.1,0,1.9,0.9,1.9,1.9v1.8
							C70.4,107.2,69.5,108.1,68.5,108.1z M68,103.3c-0.6,0-1.1,0.5-1.1,1.1v1.8c0,0.6,0.5,1.1,1.1,1.1h0.4c0.6,0,1.1-0.5,1.1-1.1
							v-1.8c0-0.6-0.5-1.1-1.1-1.1H68z"/>
						<path class="st10" d="M68.5,108.2H68c-1.1,0-2-0.9-2-2v-1.8c0-1.1,0.9-2,2-2h0.4c1.1,0,2,0.9,2,2v1.8
							C70.5,107.3,69.6,108.2,68.5,108.2z M68,102.6c-1,0-1.8,0.8-1.8,1.8v1.8c0,1,0.8,1.8,1.8,1.8h0.4c1,0,1.8-0.8,1.8-1.8v-1.8
							c0-1-0.8-1.8-1.8-1.8H68z M68.5,107.4H68c-0.7,0-1.2-0.5-1.2-1.2v-1.8c0-0.7,0.5-1.2,1.2-1.2h0.4c0.7,0,1.2,0.5,1.2,1.2v1.8
							C69.7,106.9,69.1,107.4,68.5,107.4z M68,103.4c-0.5,0-1,0.4-1,1v1.8c0,0.5,0.4,1,1,1h0.4c0.5,0,1-0.4,1-1v-1.8
							c0-0.5-0.4-1-1-1H68z"/>
					</g>
				</g>
			</g>
			<g>
				<g>
					<g>
						<path class="st10" d="M64.4,138.7l-0.2-2.4l1.3-2.6c-0.6-0.6-0.9-1.3-0.9-2.1c0-0.9,0.3-1.7,0.9-2.4c0.7-0.7,1.6-1.1,2.6-1.1
							c1,0.1,1.9,0.5,2.5,1.3c0.8,1.1,0.8,2.5,0.1,3.6c-0.6,1-1.6,1.5-2.7,1.6v-0.5c1,0,1.8-0.5,2.3-1.3c0.6-1,0.6-2.2-0.1-3.1
							c-0.5-0.7-1.3-1.1-2.1-1.1c-0.8,0-1.6,0.3-2.2,0.9c-0.5,0.5-0.8,1.3-0.7,2c0,0.7,0.4,1.4,0.9,1.9l0.1,0.1l-1.4,2.8l0.2,1.6
							l1-0.5v-1.7h1l0.1-0.4l0.4,0.2l-0.3,0.7h-0.8v1.5L64.4,138.7z"/>
						<path class="st10" d="M64.3,138.8l-0.3-2.6l1.3-2.5c-0.5-0.6-0.9-1.4-0.9-2.2c0-0.9,0.3-1.8,0.9-2.4C66,128.4,67,128,68,128
							c1,0.1,2,0.6,2.6,1.4c0.8,1.1,0.9,2.6,0.1,3.8c-0.6,1-1.7,1.6-2.8,1.6h-0.1v-0.7h0.1c0.9,0,1.7-0.5,2.2-1.3
							c0.6-0.9,0.5-2.1-0.1-3c-0.5-0.7-1.2-1.1-2-1.1s-1.6,0.3-2.1,0.9c-0.5,0.5-0.7,1.2-0.7,1.9s0.3,1.4,0.9,1.9l0.2,0.2l-1.5,2.8
							l0.1,1.4l0.8-0.4v-1.7h1.1l0.2-0.4l0.7,0.3l-0.3,0.9h-0.8v1.5L64.3,138.8z M64.3,136.3l0.2,2.2l1.7-0.8v-1.6h0.9l0.2-0.5
							l-0.2-0.1l-0.1,0.3h-1v1.7l-1.3,0.6l-0.2-1.8l1.4-2.7l-0.1-0.1c-0.6-0.5-0.9-1.2-0.9-2s0.2-1.5,0.8-2.1c0.6-0.6,1.4-1,2.3-0.9
							c0.9,0,1.7,0.5,2.2,1.2c0.7,0.9,0.7,2.2,0.1,3.2c-0.5,0.8-1.4,1.3-2.3,1.4v0.2c1-0.1,2-0.6,2.5-1.5c0.7-1.1,0.6-2.5-0.1-3.5
							c-0.6-0.8-1.4-1.2-2.4-1.3c-0.9,0-1.9,0.3-2.5,1c-0.6,0.6-0.9,1.4-0.8,2.3c0,0.8,0.4,1.5,0.9,2.1l0.1,0.1L64.3,136.3z"/>
					</g>
					<g>
						<path class="st10" d="M64.3,138.9l-0.3-2.7l1.3-2.5c-1.2-1.3-1.2-3.3,0-4.6c0.7-0.8,1.7-1.2,2.7-1.1s2,0.6,2.6,1.4
							c0.8,1.1,0.9,2.6,0.1,3.8c-0.6,1-1.7,1.6-2.9,1.6h-0.2V134h0.2c0.9,0,1.7-0.5,2.2-1.3c0.6-0.9,0.5-2.1-0.1-2.9
							c-0.5-0.6-1.2-1-2-1.1c-0.8,0-1.6,0.3-2.1,0.9c-0.5,0.5-0.7,1.2-0.7,1.9s0.3,1.4,0.9,1.8l0.2,0.2l-1.5,2.8l0.1,1.3l0.7-0.3
							v-1.8h1.1l0.2-0.5l0.7,0.3l-0.4,1h-0.8v1.5L64.3,138.9z"/>
						<path class="st10" d="M64.2,139.1l-0.3-2.9l1.3-2.5c-1.2-1.4-1.2-3.4,0.1-4.7c0.7-0.8,1.7-1.2,2.8-1.1c1.1,0.1,2,0.6,2.7,1.5
							c0.9,1.2,0.9,2.7,0.1,4c-0.7,1-1.8,1.7-3,1.7h-0.4v-1h0.4c0.9,0,1.6-0.5,2.1-1.2c0.5-0.9,0.5-2-0.1-2.8c-0.5-0.6-1.2-1-1.9-1
							c-0.8,0-1.5,0.3-2,0.8s-0.7,1.1-0.7,1.8s0.3,1.3,0.8,1.7l0.3,0.3l-1.5,2.9l0.1,1.1l0.5-0.2v-1.8h1.1l0.2-0.5l1,0.4l-0.5,1.2
							h-0.7v1.4L64.2,139.1z M64.2,136.3l0.3,2.5l2-0.9v-1.5h0.8l0.3-0.8l-0.5-0.2l-0.2,0.5h-1v1.7l-1,0.4l-0.2-1.5l1.4-2.8
							l-0.2-0.1c-0.5-0.5-0.9-1.2-0.9-1.9s0.2-1.4,0.7-2c0.6-0.6,1.4-0.9,2.2-0.9c0.8,0,1.6,0.5,2.1,1.1c0.7,0.9,0.7,2.1,0.1,3.1
							c-0.5,0.8-1.4,1.3-2.3,1.3h-0.1v0.6h0.1c1.1,0,2.2-0.6,2.8-1.6c0.7-1.1,0.7-2.6-0.1-3.7c-0.6-0.8-1.5-1.3-2.5-1.4
							c-1-0.1-1.9,0.3-2.6,1.1c-1.2,1.3-1.2,3.2,0,4.5l0.1,0.1L64.2,136.3z"/>
					</g>
				</g>
				<g>
					<g>
						<path class="st10" d="M67.9,132.8c-0.8,0-1.5-0.7-1.5-1.5s0.7-1.5,1.5-1.5s1.5,0.7,1.5,1.5S68.7,132.8,67.9,132.8z
							 M67.9,130.4c-0.5,0-1,0.4-1,1c0,0.5,0.4,1,1,1c0.5,0,1-0.4,1-1C68.8,130.8,68.4,130.4,67.9,130.4z"/>
						<path class="st10" d="M67.9,133c-0.9,0-1.6-0.7-1.6-1.6c0-0.9,0.7-1.6,1.6-1.6s1.6,0.7,1.6,1.6C69.4,132.3,68.7,133,67.9,133z
							 M67.9,130c-0.7,0-1.3,0.6-1.3,1.3s0.6,1.3,1.3,1.3c0.7,0,1.3-0.6,1.3-1.3C69.2,130.6,68.6,130,67.9,130z M67.9,132.5
							c-0.6,0-1.1-0.5-1.1-1.1s0.5-1.1,1.1-1.1s1.1,0.5,1.1,1.1S68.5,132.5,67.9,132.5z M67.9,130.5c-0.5,0-0.9,0.4-0.9,0.9
							s0.4,0.9,0.9,0.9s0.9-0.4,0.9-0.9C68.7,130.9,68.3,130.5,67.9,130.5z"/>
					</g>
					<g>
						<path class="st10" d="M67.9,133c-0.9,0-1.6-0.7-1.6-1.6s0.7-1.6,1.6-1.6s1.6,0.7,1.6,1.6S68.8,133,67.9,133z M67.9,130.6
							c-0.5,0-0.8,0.4-0.8,0.8s0.4,0.8,0.8,0.8c0.5,0,0.8-0.4,0.8-0.8S68.3,130.6,67.9,130.6z"/>
						<path class="st10" d="M67.9,133.1c-1,0-1.7-0.8-1.7-1.7c0-1,0.8-1.7,1.7-1.7s1.7,0.8,1.7,1.7S68.8,133.1,67.9,133.1z
							 M67.9,129.9c-0.8,0-1.5,0.7-1.5,1.5s0.7,1.5,1.5,1.5s1.5-0.7,1.5-1.5C69.4,130.6,68.7,129.9,67.9,129.9z M67.9,132.3
							c-0.5,0-0.9-0.4-0.9-0.9s0.4-0.9,0.9-0.9s0.9,0.4,0.9,0.9C68.8,131.9,68.4,132.3,67.9,132.3z M67.9,130.7
							c-0.4,0-0.7,0.3-0.7,0.7s0.3,0.7,0.7,0.7c0.4,0,0.7-0.3,0.7-0.7S68.3,130.7,67.9,130.7z"/>
					</g>
				</g>
			</g>
		</g>
		<g>
			<g>
				<g>
					<path class="st10" d="M66.6,83.3c0.4-0.4,0.8-0.6,1.3-0.6c0.3,0,0.6,0.1,0.8,0.2c0.3,0.1,0.5,0.4,0.7,0.6v-0.8h0.4v3.1
						c0,0.2,0.1,0.3,0.2,0.4s0.3,0.2,0.5,0.2c0.4,0,0.7-0.2,0.9-0.6c0.3-0.4,0.4-0.9,0.4-1.5c0-1-0.4-1.8-1.1-2.5s-1.6-1-2.7-1
						s-2,0.4-2.7,1.1c-0.8,0.7-1.1,1.6-1.1,2.6s0.4,1.9,1.1,2.6s1.7,1.1,2.7,1.1c0.5,0,1-0.1,1.4-0.2s0.8-0.3,1.1-0.6l0.2,0.4
						c-0.3,0.2-0.7,0.4-1.1,0.6c-0.5,0.1-1,0.2-1.6,0.2c-1.2,0-2.2-0.4-3-1.2c-0.8-0.8-1.2-1.7-1.2-2.9c0-1.1,0.4-2,1.2-2.8
						s1.8-1.2,3-1.2c1.1,0,2.1,0.4,3,1.1c0.8,0.8,1.2,1.7,1.2,2.8c0,0.7-0.2,1.2-0.5,1.7s-0.7,0.7-1.1,0.7c-0.3,0-0.5-0.1-0.7-0.2
						c-0.2-0.2-0.4-0.4-0.4-0.6h-0.1c-0.2,0.2-0.4,0.4-0.6,0.5s-0.5,0.2-0.8,0.2c-0.5,0-1-0.2-1.3-0.6c-0.4-0.4-0.5-0.8-0.5-1.4
						C66.1,84.2,66.3,83.7,66.6,83.3z M66.9,85.9c0.3,0.3,0.6,0.5,1.1,0.5c0.4,0,0.8-0.2,1.1-0.5c0.3-0.3,0.4-0.7,0.4-1.1
						s-0.1-0.8-0.4-1.1c-0.3-0.3-0.6-0.5-1.1-0.5c-0.4,0-0.8,0.2-1.1,0.5c-0.3,0.3-0.4,0.7-0.4,1.1C66.5,85.2,66.6,85.6,66.9,85.9z"
						/>
					<path class="st10" d="M68,88.7c-1.2,0-2.2-0.4-3.1-1.2c-0.8-0.8-1.3-1.8-1.3-3c0-1.1,0.4-2.1,1.3-2.9c0.8-0.8,1.9-1.2,3.1-1.2
						s2.2,0.4,3,1.2c0.8,0.8,1.3,1.7,1.3,2.8c0,0.7-0.2,1.3-0.5,1.8S71.1,87,70.6,87c-0.3,0-0.6-0.1-0.8-0.2
						c-0.2-0.1-0.3-0.3-0.4-0.5c-0.2,0.2-0.4,0.3-0.6,0.4c-0.3,0.1-0.5,0.2-0.8,0.2c-0.6,0-1-0.2-1.4-0.6S66,85.4,66,84.8
						s0.2-1.1,0.6-1.5l0,0c0.4-0.4,0.9-0.6,1.4-0.6c0.3,0,0.6,0.1,0.9,0.2c0.2,0.1,0.3,0.2,0.5,0.4v-0.5H70V86c0,0.1,0,0.2,0.1,0.3
						c0.1,0.1,0.2,0.1,0.4,0.1c0.3,0,0.6-0.2,0.8-0.5c0.2-0.4,0.4-0.9,0.4-1.4c0-0.9-0.4-1.8-1.1-2.4c-0.7-0.7-1.6-1-2.6-1
						s-1.9,0.3-2.6,1s-1.1,1.5-1.1,2.5s0.4,1.8,1.1,2.5s1.6,1.1,2.6,1.1c0.5,0,0.9-0.1,1.4-0.2c0.4-0.1,0.8-0.3,1.1-0.5l0.1-0.1
						l0.3,0.6l-0.1,0c-0.3,0.3-0.7,0.5-1.2,0.6C69.2,88.7,68.6,88.7,68,88.7z M68,80.7c-1.1,0-2.1,0.4-2.9,1.1
						c-0.8,0.8-1.2,1.7-1.2,2.7c0,1.1,0.4,2,1.2,2.8s1.8,1.2,2.9,1.2c0.6,0,1.1-0.1,1.5-0.2s0.7-0.3,1-0.5l-0.1-0.1
						c-0.3,0.2-0.7,0.4-1.1,0.5s-0.9,0.2-1.4,0.2c-1.1,0-2-0.4-2.8-1.1s-1.2-1.7-1.2-2.7s0.4-1.9,1.2-2.7c0.8-0.7,1.7-1.1,2.8-1.1
						c1.1,0,2,0.4,2.8,1.1s1.2,1.6,1.2,2.6c0,0.6-0.1,1.1-0.4,1.5s-0.6,0.7-1,0.7c-0.2,0-0.4-0.1-0.5-0.2c-0.2-0.1-0.2-0.3-0.2-0.5
						v-3h-0.2v1l-0.2-0.3c-0.2-0.2-0.4-0.4-0.6-0.6c-0.2-0.1-0.5-0.2-0.8-0.2c-0.5,0-0.9,0.2-1.3,0.5c-0.3,0.4-0.5,0.8-0.5,1.3
						s0.2,0.9,0.5,1.3c0.4,0.4,0.8,0.5,1.3,0.5c0.3,0,0.5-0.1,0.7-0.2s0.4-0.2,0.6-0.4l0,0h0.3V86c0.1,0.2,0.2,0.4,0.4,0.5
						c0.2,0.1,0.4,0.2,0.7,0.2c0.4,0,0.7-0.2,1-0.7c0.3-0.4,0.4-1,0.4-1.6c0-1-0.4-1.9-1.2-2.7C70.1,81.1,69.1,80.7,68,80.7z
						 M68,86.5c-0.5,0-0.8-0.2-1.2-0.5c-0.3-0.3-0.5-0.8-0.5-1.2c0-0.5,0.2-0.9,0.5-1.2c0.3-0.4,0.7-0.5,1.2-0.5s0.9,0.2,1.2,0.5
						c0.3,0.3,0.5,0.8,0.5,1.2c0,0.5-0.2,0.9-0.5,1.2C68.8,86.3,68.5,86.5,68,86.5z M68,83.2c-0.4,0-0.7,0.1-1,0.5
						c-0.3,0.3-0.4,0.6-0.4,1.1c0,0.4,0.1,0.8,0.4,1.1l0,0c0.3,0.3,0.6,0.5,1,0.5s0.7-0.1,1-0.5c0.3-0.3,0.4-0.6,0.4-1.1
						c0-0.4-0.1-0.8-0.4-1.1S68.4,83.2,68,83.2z"/>
				</g>
				<g>
					<path class="st10" d="M68,88.9c-1.2,0-2.3-0.4-3.1-1.3c-0.9-0.8-1.3-1.9-1.3-3c0-1.2,0.4-2.2,1.3-3s1.9-1.2,3.1-1.2
						s2.3,0.4,3.1,1.2c0.9,0.8,1.3,1.8,1.3,2.9c0,0.7-0.2,1.3-0.5,1.8c-0.4,0.5-0.8,0.8-1.3,0.8c-0.3,0-0.6-0.1-0.9-0.3
						c-0.2-0.1-0.3-0.3-0.4-0.4c-0.2,0.1-0.3,0.3-0.5,0.3c-0.3,0.1-0.6,0.2-0.9,0.2c-0.6,0-1.1-0.2-1.5-0.7c-0.4-0.4-0.6-1-0.6-1.6
						s0.2-1.1,0.6-1.6l0,0c0.4-0.4,0.9-0.7,1.5-0.7c0.3,0,0.7,0.1,1,0.3c0.1,0.1,0.2,0.1,0.3,0.2v-0.4h0.9v3.3c0,0.1,0,0.2,0.1,0.2
						c0.1,0.1,0.2,0.1,0.3,0.1c0.3,0,0.5-0.2,0.7-0.5c0.2-0.4,0.3-0.8,0.3-1.3c0-0.9-0.3-1.7-1-2.3c-0.7-0.7-1.5-1-2.5-1
						s-1.9,0.3-2.6,1s-1.1,1.5-1.1,2.4c0,1,0.3,1.8,1.1,2.4c0.7,0.7,1.6,1,2.6,1c0.5,0,0.9-0.1,1.3-0.2s0.8-0.3,1.1-0.5l0.2-0.2
						l0.4,0.8l-0.1,0.1c-0.3,0.3-0.7,0.5-1.2,0.6C69.2,88.8,68.6,88.9,68,88.9z M68,83.3c-0.4,0-0.6,0.1-0.9,0.4
						c-0.2,0.3-0.4,0.6-0.4,1s0.1,0.7,0.4,1l0,0c0.2,0.3,0.5,0.4,0.9,0.4s0.6-0.1,0.9-0.4c0.2-0.3,0.4-0.6,0.4-1s-0.1-0.7-0.4-1
						C68.6,83.5,68.3,83.3,68,83.3z M69.4,85.8h0.2v-0.5C69.6,85.5,69.5,85.7,69.4,85.8z"/>
					<path class="st10" d="M68,89c-1.3,0-2.3-0.4-3.2-1.3c-0.9-0.9-1.3-1.9-1.3-3.1s0.5-2.2,1.3-3.1c0.9-0.8,2-1.3,3.2-1.3
						s2.3,0.4,3.2,1.2c0.9,0.8,1.3,1.8,1.3,3c0,0.7-0.2,1.4-0.5,1.9s-0.7,0.8-1.2,0.9l0.4,0.7L71,88.1c-0.3,0.3-0.8,0.5-1.3,0.6
						C69.2,88.9,68.6,89,68,89z M68,80.5c-1.2,0-2.2,0.4-3.1,1.2c-0.8,0.8-1.3,1.8-1.3,2.9c0,1.2,0.4,2.1,1.3,3
						c0.8,0.8,1.9,1.2,3.1,1.2c0.6,0,1.1-0.1,1.6-0.2s0.9-0.3,1.2-0.6l0.1-0.1l-0.3-0.6l-0.1,0.1c-0.3,0.2-0.7,0.4-1.1,0.5
						s-0.9,0.2-1.4,0.2c-1,0-1.9-0.4-2.6-1.1s-1.1-1.5-1.1-2.5s0.4-1.8,1.1-2.5s1.6-1,2.6-1s1.9,0.3,2.6,1s1.1,1.5,1.1,2.4
						c0,0.5-0.1,1-0.4,1.4c-0.2,0.4-0.5,0.5-0.8,0.5c-0.2,0-0.3,0-0.4-0.1S70,86,70,85.9v-3.2h-0.6v0.5L69.2,83
						c-0.1,0-0.2,0-0.3-0.1c-0.3-0.2-0.6-0.3-0.9-0.3c-0.6,0-1,0.2-1.4,0.6S66,84.1,66,84.7s0.2,1.1,0.6,1.5s0.9,0.6,1.4,0.6
						c0.3,0,0.6-0.1,0.8-0.2c0.2-0.1,0.3-0.2,0.5-0.3l0.1-0.1l0.1,0.1c0.1,0.2,0.2,0.3,0.4,0.4c0.2,0.2,0.5,0.2,0.8,0.2h0.1l0,0
						c0.4,0,0.8-0.3,1.1-0.8c0.3-0.5,0.5-1.1,0.5-1.8c0-1.1-0.4-2.1-1.3-2.8C70.2,80.8,69.2,80.5,68,80.5z M68,81.3
						c-1,0-1.8,0.3-2.5,1s-1,1.4-1,2.3s0.3,1.7,1,2.4c0.7,0.7,1.5,1,2.5,1c0.5,0,0.9-0.1,1.3-0.2s0.7-0.3,1-0.5l0,0
						c-0.2,0-0.4-0.1-0.6-0.3c-0.1-0.1-0.3-0.2-0.4-0.4c-0.1,0.1-0.3,0.2-0.4,0.3c-0.3,0.1-0.6,0.2-0.9,0.2c-0.6,0-1.2-0.2-1.6-0.7
						s-0.6-1-0.6-1.6s0.2-1.2,0.6-1.6c0.4-0.5,1-0.7,1.6-0.7c0.4,0,0.7,0.1,1,0.3c0,0,0.1,0,0.1,0.1v-0.3h1.1v3.5
						c0,0.1,0,0.1,0.1,0.1c0.1,0.1,0.1,0.1,0.2,0.1c0.2,0,0.4-0.1,0.6-0.4s0.3-0.8,0.3-1.3c0-0.9-0.3-1.6-1-2.2
						C69.8,81.6,69,81.3,68,81.3z M68,86.3c-0.4,0-0.7-0.1-1-0.5c-0.3-0.3-0.4-0.6-0.4-1.1c0-0.4,0.1-0.8,0.4-1.1
						c0.3-0.3,0.6-0.5,1-0.5s0.7,0.1,1,0.5c0.3,0.3,0.4,0.6,0.4,1.1c0,0.4-0.1,0.8-0.4,1.1S68.4,86.3,68,86.3z M68,83.5
						c-0.3,0-0.6,0.1-0.8,0.4c-0.2,0.3-0.3,0.6-0.3,0.9c0,0.4,0.1,0.7,0.3,0.9c0.2,0.3,0.5,0.4,0.8,0.4s0.6-0.1,0.8-0.4
						c0.2-0.3,0.3-0.5,0.3-0.9s-0.1-0.7-0.3-0.9C68.6,83.6,68.3,83.5,68,83.5z M69.8,86h-0.6l0.1-0.2c0.1-0.2,0.2-0.3,0.2-0.5
						l0.2-0.8V86H69.8z"/>
				</g>
			</g>
		</g>
	</g>
	<g>
		<g>
			<g>
				<g>
					
						<linearGradient id="SVGID_4_" gradientUnits="userSpaceOnUse" x1="164.5302" y1="102.7533" x2="190.9704" y2="136.4331" gradientTransform="matrix(1 0 0 -1 0 208)">
						<stop  offset="0.4676" style="stop-color:#00A9DF"/>
						<stop  offset="0.6654" style="stop-color:#00A6DD"/>
						<stop  offset="0.8129" style="stop-color:#009CD5"/>
						<stop  offset="0.9439" style="stop-color:#008CC8"/>
						<stop  offset="1" style="stop-color:#0083C0"/>
					</linearGradient>
					<path class="st11" d="M152,100.1l23.5,16.1l31.9-44.4c0,0,2.7-3.9-3.6-7.9l-12.2-8.8c0,0-5.4-4-9.7,3.3l-0.7,1L152,100.1z"/>
				</g>
			</g>
			<g>
				<g>
					<g>
						<polygon class="st12" points="152,100.1 147.8,127.9 175.4,116.2 						"/>
					</g>
				</g>
				<path class="st13" d="M149.5,116.8c0,0,5.5,1.1,8.8,6.7l-10.5,4.4L149.5,116.8z"/>
				<path class="st12" d="M205.9,73.8c-0.4,0.3-23.8-16.2-23.8-16.2l-1.1,1.9l23.3,16.4L205.9,73.8z"/>
				
					<linearGradient id="SVGID_5_" gradientUnits="userSpaceOnUse" x1="156.9855" y1="110.2207" x2="183.1109" y2="142.7463" gradientTransform="matrix(1 0 0 -1 0 208)">
					<stop  offset="7.810507e-02" style="stop-color:#F2F2F2;stop-opacity:0.6"/>
					<stop  offset="0.793" style="stop-color:#F2F2F2;stop-opacity:0"/>
				</linearGradient>
				<polygon class="st14" points="187.5,64 158.3,104.4 152,100.1 181.1,59.5 				"/>
				
					<linearGradient id="SVGID_6_" gradientUnits="userSpaceOnUse" x1="173.4716" y1="98.8156" x2="199.5422" y2="131.273" gradientTransform="matrix(1 0 0 -1 0 208)">
					<stop  offset="0.3115" style="stop-color:#F2F2F2;stop-opacity:0.3"/>
					<stop  offset="0.793" style="stop-color:#F2F2F2;stop-opacity:0"/>
				</linearGradient>
				<polygon class="st15" points="196.9,70.6 167.8,111 175.4,116.2 204.4,75.9 				"/>
			</g>
		</g>
		<path class="st16" d="M182.1,57.6l23.8,16.2c0,0,5.1-4.3,0-8.1l-14-10.3C191.9,55.4,186.4,51.2,182.1,57.6z"/>
	</g>
</g>
</svg>
