<?xml version="1.0" encoding="utf-8"?>
<svg version="1.1" id="Layer_1" xmlns="http://www.w3.org/2000/svg" xmlns:xlink="http://www.w3.org/1999/xlink" x="0px" y="0px"
	 viewBox="0 0 3464 952.1" style="enable-background:new 0 0 3464 952.1;" xml:space="preserve">
<style type="text/css">
	.st0{fill:#62B1E2;}
	.st1{fill:#0E76BB;}
	.st2{fill:#3F8ECC;}
	.st3{fill:#3C8BCA;}
	.st4{fill:#57A6DB;}
	.st5{fill:#4797D1;}
	.st6{fill:#5FAEE0;}
	.st7{fill:#4B9BD4;}
	.st8{fill:#4291CD;}
	.st9{fill:#3285C6;}
	.st10{fill:#4D9ED6;}
	.st11{fill:#5AA9DD;}
	.st12{fill:#1E7CC0;}
	.st13{fill:#54A3D9;}
	.st14{fill:#2981C3;}
	.st15{fill:#2D83C4;}
	.st16{fill:#3988C8;}
	.st17{fill:#1176BC;}
	.st18{fill:#4393CF;}
	.st19{fill:#4595D0;}
	.st20{fill:#4999D3;}
	.st21{fill:#5CABDE;}
	.st22{fill:#3687C7;}
	.st23{fill:#51A1D8;}
	.st24{fill:#257FC2;}
	.st25{fill:#227EC1;}
	.st26{fill:#197ABE;}
	.st27{fill:#1578BD;}
	.st28{fill:#0F75BB;}
	.st29{fill:#4FA0D7;}
	.st30{fill:#DAEAF4;}
	.st31{fill:#98CCEC;}
	.st32{fill:#63B2E2;}
	.st33{fill:#4795CB;}
	.st34{fill:#FBFDFD;}
	.st35{fill:#6BA9D5;}
	.st36{fill:#C2DCED;}
	.st37{fill:#EFF5FA;}
	.st38{fill:#F5F9FC;}
</style>
<g>
	<path class="st0" d="M677.4,138.6c42.7,0,85.3,0.1,128-0.1c4.8,0,5.5,1.4,4.8,5.7c-5.4,33-10.6,66-15.7,99c-0.7,4.2-1.6,6.5-7,6.4
		c-20.5-0.4-41-0.1-61.5-0.2c-3.7,0-5.1,0.9-5.7,4.8c-6,39.3-12.4,78.5-18.6,117.7c-7.2,45.6-14.2,91.3-21.4,137
		c-3.2,20.7-6.6,41.4-9.8,62.1c-0.4,2.6-1.3,3.7-4.1,3.7c-38.5-0.1-77-0.1-115.5,0c-2.5,0-3.5-0.3-3-3.3
		c6.2-38.2,12.2-76.5,18.2-114.7c6.2-39.2,12.2-78.5,18.4-117.8c4.4-27.9,8.7-55.8,13.4-83.7c0.7-4.4,0.2-5.8-4.6-5.7
		c-20,0.2-40,0.1-60,0.1c-7,0-7,0-6-6.8c5.3-33.2,10.7-66.3,15.7-99.5c0.6-4.3,2.4-4.5,5.8-4.5C591.7,138.7,634.5,138.6,677.4,138.6
		z"/>
	<path class="st0" d="M1004.6,488.1c-0.4-19.1,3.5-37.7,6.4-56.4c4.4-29.1,9-58.1,13.6-87.2c3.7-24,7.5-47.9,11.2-71.9
		c0.5-3.1,1.9-3.9,5-3.9c33.8,0.1,67.7,0.2,101.5,0c5.3,0,4.7,2.7,4.2,5.9c-3.4,21.5-6.8,43-10.2,64.5c-4.9,31.2-9.8,62.4-14.7,93.6
		c-1.5,9.7-3.3,19.3-4.6,29c-1.1,7.7-1.8,15.8,5.9,20.8c8,5.3,16.6,4.3,24.6-0.2c6.8-3.8,10.7-10,12.1-17.5c2-10.5,3.4-21,5.1-31.5
		c5.2-32.5,10.4-65,15.6-97.5c3.2-20.2,6.4-40.4,9.4-60.6c0.7-4.6,1.8-6.7,7.2-6.6c33,0.3,66,0.2,99,0.1c4.4,0,5.4,1.4,4.7,5.5
		c-6.6,40.7-13.2,81.4-19.7,122.1c-3.9,24.4-7,49-12.2,73.3c-4,18.7-10.7,36.4-20.9,52.6c-16.7,26.8-40.5,44.4-70.6,53.2
		c-35.7,10.4-72,11.8-107.8,1.1c-33.1-9.9-56-30.6-63.2-65.9c-0.6-2.9-1.2-5.9-1.3-8.9C1004.4,497.2,1004.6,492.6,1004.6,488.1z"/>
	<path class="st1" d="M2473.4,574.3c3.8-24.3,7.7-48.5,11.5-72.6c6.2-38.9,12.3-77.9,18.5-116.8c6.5-41.2,13.1-82.5,19.6-123.7
		s13-82.5,19.5-123.8c1.8-11.7,3.8-23.3,5.6-35c0.4-2.7,1.4-3.5,4.1-3.5c34.5,0.1,69,0.1,103.5,0c2.7,0,3.7,0.3,3.2,3.6
		c-6.7,41.7-13.2,83.5-19.8,125.2c-6.5,41.2-13.1,82.5-19.6,123.7c-6.8,43.1-13.6,86.1-20.4,129.2c-4.8,30.1-9.6,60.1-14.3,90.2
		c-0.4,2.8-1.1,3.9-4.2,3.9c-34.8-0.1-69.6-0.1-104.5-0.1C2475.3,574.6,2474.5,574.4,2473.4,574.3z"/>
	<path class="st1" d="M2658,467.1c8.8,7.7,17.1,14.5,26.5,19.9c12.4,7.2,25.3,12.8,39.9,12.7c2.5,0,5,0,7.5-0.5
		c16.5-3.3,21.6-17.7,10.9-30.7c-6-7.3-13.8-12.5-21.7-17.5c-15.7-9.8-30.8-20.4-43.4-34.3c-16.6-18.2-21.9-39.7-19.9-63.7
		c4.2-50.7,43.6-83.4,87.4-90.5c38.9-6.3,75.9,0,111.1,17.4c2.8,1.4,4.2,2.7,3.3,6.3c-5.8,24.2-11.5,48.6-16.9,72.9
		c-0.8,3.7-1.7,3.9-4.6,1.7c-13.1-9.7-26.8-18.2-43.2-20.9c-6.9-1.1-13.9-1.3-20.7,1.4c-12.8,5-15.9,17.2-6.8,27.5
		c4.4,5.1,10,8.8,15.4,12.7c16.7,12,32.9,24.4,47.1,39.3c17,17.9,22.2,39.6,21.1,63.5c-2.5,55.1-43.5,88.8-91.8,96.1
		c-46.5,7-89.2-3.8-129-28c-2.9-1.7-3.6-3.1-2.3-6.6C2638,520,2647.8,493.9,2658,467.1z"/>
	<path class="st0" d="M922.4,309.8c13.8-15.6,28.7-28.9,47.2-37.8c12.1-5.8,24.9-9.4,38.1-11.2c3.3-0.5,5.5-0.6,4.7,4.3
		c-5.4,32.6-10.5,65.3-15.5,98c-0.6,3.6-1.7,4.8-5.5,5c-10.5,0.4-20.9,1.1-31.2,3.4c-22.1,4.9-36.4,18.1-44,39.3
		c-5.4,14.9-7.2,30.4-9.7,45.8c-4,24.8-7.7,49.6-11.6,74.4c-2.1,13.3-4.3,26.6-6.2,39.9c-0.4,2.8-1.2,3.9-4.3,3.9
		c-34.8-0.1-69.7-0.1-104.5,0c-2.9,0-3.7-0.7-3.2-3.7c7.2-45,14.4-89.9,21.5-134.9c8.4-52.7,16.7-105.4,25-158.1
		c1.4-9.2,1.4-9.2,10.7-9.2c29.8,0,59.7,0.1,89.5-0.1c4.9,0,5.6,1.6,4.9,5.8C926.2,286.2,924.3,298,922.4,309.8z"/>
	<path class="st0" d="M495.5,723.7c17.6-3.4,35.2-7,52.9-10.1c32.6-5.7,65.2-11.2,97.9-16.4c26.3-4.2,52.6-7.9,78.9-11.7
		c23.4-3.3,46.7-6.6,70.1-9.7c23.2-3,46.5-5.7,69.8-8.4c25.1-2.9,50.2-5.9,75.3-8.6c17.7-1.9,35.4-3.6,53.1-5.3
		c24.7-2.3,49.3-4.6,74-6.8c17.2-1.5,34.5-2.9,51.7-4.2c25.9-2,51.8-3.9,77.6-5.8c3.1-0.2,6.3-0.1,9.5-0.2c1.9,2.1,1.5,4.7,1.6,7.1
		c0.3,10.6-0.6,21.3,0.6,31.9c-1.3,0.9-2.9,0.7-4.4,0.7c-22.5,0.8-44.9,1.4-67.4,2.4c-33.9,1.5-67.8,3.2-101.8,5
		c-22.9,1.2-45.9,2.5-68.8,3.9c-36.9,2.3-73.7,4.6-110.6,7.1c-26.7,1.8-53.4,3.8-80.1,5.9c-35.3,2.9-70.7,5.1-106,8.6
		c-21,2.1-42.1,3.5-63.2,5.4c-23,2.1-46,4.5-69,6.6c-13.2,1.2-26.5,2.3-39.8,3.4C496.6,725,495.5,725.6,495.5,723.7z"/>
	<path class="st0" d="M2756,627.6c8.2-7.5,17.5-12.1,28.8-11.8c13.1,0.4,20.8,5.9,24,17.2c2.1-0.8,2.6-2.9,3.7-4.4
		c11.6-15.8,34.2-15.5,44.6-7c8.4,6.9,9.3,16.4,7.9,26c-3.7,25.3-7.9,50.6-11.8,75.8c-0.5,3-1.6,4.5-5.1,4.4
		c-10.5-0.3-21-0.2-31.5,0c-3.6,0.1-4.7-1-4.1-4.5c3.2-18.8,6.2-37.7,9.3-56.6c0.3-2.1,0.5-4.3,0.8-6.4c0.4-3.6-0.7-6.5-4.4-7.4
		c-4-1-6.9,1.1-8.4,4.6c-2.2,4.9-2.4,10.3-3.3,15.6c-2.8,17-5.5,34.1-8.1,51.2c-0.4,2.8-1.7,3.5-4.3,3.5c-11-0.1-22-0.1-33,0
		c-2.7,0-3.7-0.4-3.2-3.7c3.5-20.8,6.7-41.7,10.1-62.5c0.7-4.1,0.1-7.6-4.4-8.7c-4.4-1.1-7.5,1.3-8.9,5.4c-2.4,7.5-2.9,15.3-4.3,23
		c-2.5,14.4-4.8,28.8-7,43.3c-0.4,2.7-1.7,3.1-4,3.1c-11-0.1-22-0.2-33,0.1c-3.6,0.1-3.7-1.3-3.2-4.1c2.6-15.6,5-31.2,7.5-46.8
		c2.9-17.9,5.9-35.7,8.5-53.7c0.6-4.2,1.9-5.9,6.5-5.7c8.6,0.4,17.3,0.3,26,0c4.3-0.1,5.4,1.3,4.1,5.2
		C2755.5,624.2,2755.1,625.6,2756,627.6z"/>
	<path class="st0" d="M2587.4,692.2c-1.7,11.1-3.4,22.1-5.1,33c-0.2,1.3-1,2-2.2,2.4c-15.9,4.5-31.6,6.2-45.5-5.1
		c-9.2-7.4-12.3-18.2-12.7-29.3c-0.7-22.3,3.1-43.4,18.2-61.1c13.2-15.6,37-21.8,55.9-14.3c2.4,1,3.2,2.1,2.7,4.8
		c-1.6,9-2.9,18-4.2,27.1c-0.4,2.7-1.5,2.6-3.7,1.8c-8.5-3-13.9-0.8-18.3,7c-4.5,8-5.6,16.7-4.7,25.6c0.8,8.1,5.4,11.2,13.5,9.7
		C2583.1,693.4,2585,692.8,2587.4,692.2z"/>
	<path class="st2" d="M1914.4,672.4c-23.7-0.7-47.3-1.3-71-2c-1.7-1.7-1.6-3.9-1.6-6.1c-0.1-10.9-0.1-21.8,0-32.8
		c0.1-6.2,0.5-6.6,6.5-6.5c3.4,0.1,6.9-0.5,10.3,0.4c19-0.1,37.9,0.7,56.8,2c1.5,1.8,1.6,3.9,1.6,6.1c0,10.6,0.1,21.1,0,31.7
		C1917,667.9,1916.9,670.6,1914.4,672.4z"/>
	<path class="st3" d="M1914.4,672.4c1.4-3.5,1-7.1,1-10.7c0-11.4,0-22.8,0-34.1c22.6,0.1,45.2,1.7,67.8,2.5c0.5,0,0.9,0.3,1.4,0.5
		c-1.3,12.2-0.3,24.5-0.7,36.7c-0.1,2.6,0.5,5.4-1.7,7.5C1959.7,673.9,1937.1,673.2,1914.4,672.4z"/>
	<path class="st4" d="M1423.4,669.6c-19.6,1.3-39.2,0.9-58.8,1c-6.9,0.9-7.7,0.4-7.8-6.2c-0.1-9.9-0.1-19.9,0-29.8
		c0-2.2,0.1-4.3,1.6-6.1c9-1.7,18.2-0.9,27.3-1.5c12.2-0.9,24.5-0.9,36.7-1.2c2,1.4,2.5,3.5,2.5,5.7c0.2,11.2,0.1,22.3,0,33.5
		C1424.9,666.7,1424.6,668.3,1423.4,669.6z"/>
	<path class="st5" d="M1717.4,668.5c-18,0.2-36,0.2-54-0.8c-1.4-1.6-1.6-3.6-1.6-5.6c-0.1-11.4-0.1-22.9,0-34.3
		c0-1.8,0.1-3.7,1.4-5.2c14.2-0.7,28.3-0.7,42.5,0c3.9,0,7.8,0,11.7,0c1.4,1.6,1.6,3.6,1.6,5.6c0.1,11.6,0.1,23.2,0,34.8
		C1719,664.9,1719,666.9,1717.4,668.5z"/>
	<path class="st6" d="M1208.6,675.7c-3-0.5-2.2-2.9-2.2-4.7c-0.1-11.4,0-22.9,0-34.3c20.9-1.9,41.9-2.9,62.9-3.9
		c-0.7,11.5-0.3,23.1-0.4,34.7c0,2.1,0.1,4.3-1.5,6.1C1247.8,674.8,1228.2,675.6,1208.6,675.7z"/>
	<path class="st7" d="M1705.7,622.5c-14.1,0.1-28.2,0.1-42.3,0.2c-1.9,1.6-4.3,1.5-6.6,1.5c-7.5,0.1-14.9,0.2-22.4,0
		c-4.1-0.1-5.5,1.6-5.5,5.6c0.1,10.3,0.1,20.5,0,30.8c0,2.5,0.2,5-1.6,7.1c-17.7,0-35.3,0-53,0c-1.4-1.6-1.6-3.6-1.6-5.6
		c-0.1-11.3-0.1-22.5,0-33.8c0-2,0.1-4,1.6-5.6c12.8-0.1,25.6-0.1,38.5-0.4c29.1-0.6,58.3-0.5,87.4-0.4
		C1702.1,621.9,1704,621.5,1705.7,622.5z"/>
	<path class="st8" d="M1858.6,625.5c-1,0-2,0.1-3,0.1c-12.2,0.1-12.2,0.1-12.2,12.6c0,10.8,0,21.5,0,32.3c-16.3-0.3-32.7-0.7-49-1
		c-2.5-1.6-3.5-3.9-3.5-6.8c-0.2-11.5-0.1-22.9,0-34.4c0-1.7,0.3-3.3,1.5-4.6c21.5-0.4,42.9,1.1,64.3,1.4
		C1857.4,625,1858,625.3,1858.6,625.5z"/>
	<path class="st9" d="M2059.4,634.7c18,0.7,36,2.1,54,3.9c1.5,1.6,1.6,3.6,1.6,5.6c0.1,10.3,0.1,20.6,0,31c0,2,0,4-1.6,5.6
		c-16-0.1-32-1.6-48-2.4c-7.5-0.8-7.5-0.8-7.6-8.7c0-9.3,0-18.6,0-27.9C2057.9,639.4,2057.5,636.8,2059.4,634.7z"/>
	<path class="st10" d="M1574.4,622.7c0,15,0,30,0,44.9c-4.6,0-9.2,0-13.8,0c-11.4,0.9-22.9,0.2-34.3,0.4c-3.4,0-3.3-2.8-3.4-5
		c-0.3-6.3-0.1-12.6-0.1-18.9c0-4.8,0-9.6,0-14.5c0-2.2,0.1-4.3,1.6-6.1C1541.1,622.2,1557.7,622.6,1574.4,622.7z"/>
	<path class="st11" d="M1358.4,628.6c0,11.9,0.3,23.9-0.1,35.8c-0.2,5.1,1.4,7.1,6.3,6.3c-6.8,1.5-13.8,0.6-20.7,0.9
		c-6.1,0.2-12.2,0.1-18.3,0.1c-6,1.2-12.1-0.3-18.1,0.8c-0.4,0-0.7,0-1.1,0c-1.6-1.6-1.6-3.6-1.6-5.6c-0.1-9.9-0.1-19.9,0-29.8
		c0-2.6,0-5.5,3.5-6.2C1325,629.9,1341.7,628.5,1358.4,628.6z"/>
	<path class="st12" d="M2275.4,652.5c18.5,1.2,36.9,3.3,55.2,6c-1.4,10.4-0.4,20.8-0.7,31.2c0,2.1,1.4,3.7,1.4,5.7
		c-17.7-1.3-35.3-2.7-53-4c-2.4-0.2-4.2-1.1-4.3-3.8c-0.4-10.8-0.5-21.6,0.1-32.5C2274.2,654.1,2274.6,653.2,2275.4,652.5z"/>
	<path class="st13" d="M1423.4,669.6c0-12.2,0-24.3,0-36.5c0-2.5-0.2-5-1-7.4c14.7-0.6,29.3-1.6,44-1.2c1.8,2.1,1.5,4.6,1.6,7.1
		c0,9.1,0,18.3,0,27.4c0,6.5,0,6.5,6,8.5c0.6,0.2,1.2,0.6,1.6,1.1c-5.2,1.3-10.6,0.6-15.8,0.7
		C1447.7,669.6,1435.5,669.6,1423.4,669.6z"/>
	<path class="st14" d="M2162.7,642.5c13.3,0.4,26.5,1.4,39.7,3.2c2.7,1.5,2.4,4.1,2.5,6.6c0.1,7.6,0.2,15.2,0,22.9
		c-0.1,4,0.3,7.8,2.5,11.3c-16.3-1-32.7-2-49-3c-2.5-1.3-2.5-3.7-2.5-6c-0.1-9.8-0.2-19.5,0-29.3
		C2156,642.2,2156.7,641.8,2162.7,642.5z"/>
	<path class="st15" d="M2162.7,642.5c-4.5-0.6-5.6,1.4-5.4,5.7c0.3,9.8,0.1,19.6,0.1,29.4c0,2-0.2,4,1,5.8c-15-0.6-30-1.2-45-2.6
		c0-14,0-28.1,0.1-42.1C2129.9,639.4,2146.4,640.5,2162.7,642.5z"/>
	<path class="st16" d="M1982.3,674.7c0-13.2,0-26.3,0.1-39.5c0-1.9-0.8-4.2,2.2-4.7c13,0,25.9,0.8,38.8,2.1c1.5,1.6,1.6,3.6,1.6,5.6
		c0.1,10.9,0.1,21.8,0,32.8c0,2-0.1,4-1.6,5.6c-9.7,0.4-19.4-0.8-29.1-1.1C1990.4,674.4,1986.3,675.8,1982.3,674.7L1982.3,674.7z"/>
	<path class="st17" d="M2405.8,667.5c15.5,1.1,30.7,3.8,46.1,5.6c4,0.5,7.9,1.1,11.9,1.7c0.1,1.9-1.6,2.4-2.5,3.4
		c-6.5,6.7-10.7,14.5-11.9,23.7c-0.4,3.3-1.7,4.1-4.8,3.7c-13.7-1.5-27.5-2.8-41.2-4.2c-3.7-0.2-4.5-2.6-4.5-5.7
		c-0.1-7.6-0.2-15.2,0-22.7C2399,667.2,2399.7,666.8,2405.8,667.5z"/>
	<path class="st18" d="M1792.4,623.6c0,11.8,0.1,23.6,0,35.3c0,3.7,0.1,7.2,2.1,10.5c-13.7,0.1-27.3,0.2-41-0.7
		c-1.4-1.6-1.6-3.6-1.6-5.6c-0.1-11.6-0.1-23.2,0-34.8c0-2,0-4,1.6-5.6C1766.4,622.5,1779.4,622.8,1792.4,623.6z"/>
	<path class="st0" d="M2489.5,681.5c10.5,0,17,5.4,19.2,15.8c3,14.3-6.2,29.1-20.1,32.7c-13.9,3.6-25.1-5-25.2-19.4
		C2463.3,693.8,2474.3,681.6,2489.5,681.5z"/>
	<path class="st19" d="M1753.4,622.8c0,15.3,0,30.6,0,45.9c-12-0.1-24-0.1-36-0.2c0-15.3,0-30.6,0-45.9
		C1729.4,622.6,1741.4,622.7,1753.4,622.8z"/>
	<path class="st20" d="M1627.4,667.6c0-13.4,0.1-26.9-0.1-40.3c-0.1-3.7,1-4.9,4.8-4.8c10.4,0.3,20.9,0.1,31.3,0.2c0,15,0,30,0,45
		C1651.4,667.7,1639.4,667.7,1627.4,667.6z"/>
	<path class="st21" d="M1308.4,630.8c-2.2,1.4-2,3.6-2,5.7c0,12,0,23.9,0,35.9c-13,0.3-26,1.6-39,1.1c0-11.8,0-23.7,0-35.5
		c0-2.1,0-4,2-5.3C1282.4,632.1,1295.4,631.5,1308.4,630.8z"/>
	<path class="st22" d="M2023.4,676.5c0-14.6,0-29.3,0-43.9c12,0.1,24,1,36,2.1c0,11.7,0.2,23.5-0.1,35.2c-0.1,4.8,0.3,8.3,6.1,8.5
		C2051.4,677.8,2037.4,677.2,2023.4,676.5z"/>
	<path class="st23" d="M1475.6,668.7c-9.2-0.3-9.2-0.3-9.2-9.8c0-11.4,0-22.9,0-34.3c11.7-0.7,23.3-1.2,35-0.9
		c1.6,1.6,1.6,3.6,1.6,5.6c0.1,11.2,0.1,22.3,0,33.5c0,2,0,4-1.6,5.6C1492.8,668.5,1484.2,668.6,1475.6,668.7z"/>
	<path class="st24" d="M2207.4,686.4c-3.2-0.8-4.2-2.6-4.1-6c0.3-9.6,0.1-19.3,0.1-28.9c0-2,0.2-4-1-5.8c13.8,0.8,27.6,1.9,41.3,3.8
		c-2.1,2.3-2.8,5-2.8,8.2c0.1,8.1,0.1,16.2,0,24.3c0,2.3,0.2,4.7-1.5,6.6C2228.7,688.5,2218.1,687.2,2207.4,686.4z"/>
	<path class="st25" d="M2239.4,688.6c0-11.4,0.1-22.9-0.1-34.3c-0.1-3.4,0.9-5,4.4-4.7c10.6,0.5,21.2,1.4,31.7,3.1
		c0,11.2,0.1,22.3-0.1,33.5c0,2.6,0.5,4.5,3,5.4c-9.7-0.7-19.3-1.3-29-2c-2.4-0.9-4.9,0.2-7.3-0.7
		C2241.2,688.7,2240.3,688.6,2239.4,688.6z"/>
	<path class="st26" d="M2331.4,695.4c-2.2-0.9-3.1-2.3-3-4.9c0.2-9.3,0.1-18.5,0.1-27.8c0-1.8-0.5-3.8,2.2-4.2
		c11.3,0.8,22.6,2.1,33.8,4c1.5,1.8,1.5,4,1.5,6.2c0,5.8,0.1,11.7,0,17.5c-0.1,4.2,0.1,8.3,1.4,12.3
		C2355.4,697.4,2343.4,696.4,2331.4,695.4z"/>
	<path class="st27" d="M2367.4,698.4c-2.2-0.9-3.1-2.4-3-4.9c0.2-10.3,0.1-20.7,0.1-31c13.9,1.1,27.7,2.6,41.4,5
		c-4.3-0.5-5.8,1.2-5.5,5.6c0.4,7.8,0.2,15.6,0,23.4c-0.1,2.6,0.9,4,3,4.9C2391.4,700.4,2379.4,699.4,2367.4,698.4z"/>
	<path class="st28" d="M2952.2,770.8c-21-3.2-42.1-6.3-63.1-9.8c-34.6-5.6-69.4-10.4-104.1-15.5c-5-0.7-10-1.5-15-3
		c8.7,0,17.3,0.4,25.9-0.1c14.4-0.9,28.7,0.2,43,0.3c11.3,0.1,22.2,4.1,33.1,6.7c27.1,6.6,54.2,13.4,81.3,20.1
		C2953.5,770.7,2953.3,771.2,2952.2,770.8z"/>
	<path class="st29" d="M1501.4,668.5c0-14.9,0-29.8,0-44.7c7.7-0.1,15.3-0.2,23-0.3c0,13.1,0.1,26.3-0.1,39.4
		c-0.1,3.8,1.2,4.8,4.9,4.7c10.5-0.2,21,0,31.4,0c-3.2,1.3-6.6,0.5-9.9,0.6C1534.3,668.4,1517.9,668.4,1501.4,668.5z"/>
	<path class="st21" d="M1307.5,672.4c6-1.8,12.1-0.4,18.1-0.8C1319.6,673,1313.5,672.4,1307.5,672.4z"/>
	<path class="st30" d="M1902.3,393.6c-0.4,3.1-0.6,6.3-1.8,9.3c-0.3-1,0.1-2.3-0.9-3.1c0.4-2.1,0.4-4.3,1.6-6.1
		C1901.6,393.1,1902,393.1,1902.3,393.6z"/>
	<path class="st3" d="M1982.3,674.7c4,0.3,8.1-0.9,12,0.8C1990.3,675.4,1986.3,675.9,1982.3,674.7z"/>
	<path class="st31" d="M489.4,725.7c-2.2,1.5-4.6,0.8-7.1,0.2c2.4-0.4,4.7-0.8,7.1-1.2c0.3,0.2,0.4,0.5,0.3,0.7
		C489.7,725.6,489.5,725.7,489.4,725.7z"/>
	<path class="st32" d="M489.4,725.7c0-0.3,0-0.7,0-1c2-0.3,4-0.7,6-1c0.7,0.3,1.5,0.6,2.2,0.9C495.1,726.1,492.2,725.4,489.4,725.7z
		"/>
	<path class="st33" d="M2952.2,770.8c0.4-0.4,0.8-0.7,1.2-1.1c1.7,0.3,3.3,0.7,5,1c0.3,0.2,0.4,0.5,0.3,0.7
		c-0.1,0.2-0.2,0.4-0.3,0.4C2956.3,771.6,2954.1,772.1,2952.2,770.8z"/>
	<path class="st34" d="M1905.3,379.6c-0.4,1.7-0.7,3.3-1.1,5c-0.3,0.3-0.6,0.3-0.9,0c0-1.7-0.1-3.5,0.9-5
		C1904.6,379.6,1905,379.6,1905.3,379.6z"/>
	<path class="st24" d="M2242.1,688.7c2.4,0.2,5-0.9,7.3,0.7C2246.9,689.5,2244.5,689.7,2242.1,688.7z"/>
	<path class="st35" d="M2958.4,771.8c0-0.4,0-0.7,0-1.1c1.6,0.3,3.3,0.6,4.9,1c0.3,0.1,0.5,0.3,0.4,0.5s-0.2,0.3-0.3,0.3
		C2961.7,772.5,2959.9,773.1,2958.4,771.8z"/>
	<path class="st36" d="M2963.4,772.6c0-0.3-0.1-0.6-0.1-0.9c1.1,0.4,2.2,0.8,3.3,1.2C2965.3,774.1,2964.3,773.7,2963.4,772.6z"/>
	<path class="st1" d="M1903.3,240.7c-11.2-42.6-36.1-73.2-78-88.9c-19.2-7.2-39.1-10.9-59.5-12.1c-37.8-2.2-75.6-0.5-113.5-1.1
		c-3.1,0-3.8,1.1-4.2,3.9c-2.6,17.3-5.4,34.5-8.2,51.8c-6.9,43.2-13.7,86.4-20.6,129.7c-6.5,40.9-13,81.8-19.5,122.8
		c-6.5,41.3-13,82.5-19.7,123.8c-0.5,3.2-0.3,4.3,3.3,4.2c47.1-0.7,94.3,1.6,141.4-2.1c18.1-1.4,36.1-3.7,53.4-9.6
		c38.2-13,65.9-38.6,86.1-73c16.5-28.2,27.1-58.8,35.2-90.4c1.9-1.6,1.9-4,2.6-6c0.4-1.6,0.7-3.3,1.2-4.9c0.3-1.4,0.4-2.8,0.8-4.2
		c0.4-1.7,0.5-3.3,0-5c2.2-16,4.8-31.9,5.7-48.1C1911.6,300.9,1911.2,270.5,1903.3,240.7z M1792.8,308.4
		c-0.7,40-7.1,79.1-19.4,117.2c-2.1,6.5-4.6,12.9-8.2,18.7c-9.4,15.1-22.8,23.3-40.9,23.4c-3.8,0-5.1-0.6-4.4-5
		c8-49.2,15.8-98.5,23.6-147.8c3.4-21.4,6.9-42.7,10.1-64.1c0.6-4.1,2.5-4.6,6-4c18.1,2.9,28.6,14.5,31.8,35.3
		C1792.7,290.7,1792.8,299.6,1792.8,308.4z"/>
	<path class="st37" d="M1902.3,393.6c-0.3,0-0.7,0-1,0c0-1.7,0.1-3.5,1.1-5c0.3-0.5,0.6-0.5,0.9,0
		C1903,390.3,1902.6,391.9,1902.3,393.6z"/>
	<path class="st38" d="M1903.3,388.6c-0.3,0-0.6,0-0.9,0c0-1.4-0.2-2.9,0.9-4c0.3,0,0.6,0,0.9,0
		C1903.9,385.9,1903.6,387.3,1903.3,388.6z"/>
	<path class="st1" d="M2472,268.7c-33.7,0.1-67.3,0.1-101-0.1c-3.8,0-4.8,1.4-5.3,4.7c-1.4,9.1-3,18.2-4.7,28
		c-3.8-5.2-7-10-10.6-14.6c-13.5-17.1-31-26.1-53-26.5c-29.6-0.5-53,12.2-72.3,33.5c-16.4,18.1-28,39.2-36.9,61.9
		c-12.6,32.1-18.3,65.6-19.9,99.9c-0.9,21.3-1.2,42.6,3.9,63.6c4.6,18.6,12,35.9,27.1,48.4c23.2,19.1,49.4,19.5,76.3,9.3
		c16.9-6.4,30.1-18.2,42.6-30.8c1.2-1.2,1.9-3.2,4.4-3.2c-1.3,9.2-2.4,18.3-4,27.3c-0.7,3.7,0.2,4.5,3.8,4.5
		c33.8-0.1,67.7-0.1,101.5,0c2.9,0,4.2-0.5,4.7-3.9c4.4-28.5,9-56.9,13.5-85.3c11.2-70.8,22.3-141.7,33.6-212.5
		C2476.5,268.9,2475.2,268.7,2472,268.7z M2342.6,395.1c-0.3,23-3.6,45.4-13.1,66.6c-3.2,7-6.9,13.7-12.6,19
		c-11.6,10.9-25.9,7.6-31.4-7.3c-3.3-8.8-3.3-17.9-3.2-27.1c0.3-21.7,3.5-42.8,12.1-62.8c3.3-7.7,7.2-15,13.3-20.9
		c12.5-12,27.9-7.9,32.6,8.7C2342.7,379.1,2342.7,387.1,2342.6,395.1z"/>
	<path class="st0" d="M1580.5,359.8c-3.1-39.2-21.4-68.6-56.8-86c-32.4-15.9-66.8-17-101.5-9.5c-42.4,9.3-72.1,35.8-91.6,73.5
		c-25.7,49.8-30.4,103.1-19.5,157.4c8,40.2,31.9,68.3,71.7,81.2c27.3,8.9,55.3,9.3,83.4,4.7c24.4-4,46.2-13.9,64.1-31.2
		c21.5-20.7,31.9-46.7,35.1-75.9c0.7-6.4,0.5-6.4-6-6.4c-26,0-52,0-78,0c-7.7,0-7.6,0-9.1,7.6c-2.2,11.3-7.4,20.3-18.9,24.4
		c-6.7,2.4-13.7,2.8-20.7,1.5c-12.5-2.3-18.8-8.2-20.8-21c-2.2-13.8,0.5-27.5,1.8-41.3c0.4-3.7,2-4.4,5.5-4.4
		c25.3,0.2,50.7,0.1,76,0.1c25.5,0,51,0,76.5,0c2.3,0,4.4,0.5,4.8-3.2C1579.4,407.6,1582.4,383.9,1580.5,359.8z M1487.7,379.9
		c-0.3,2.9-1.5,3.5-4.1,3.5c-9.7-0.1-19.3,0-29,0c-9.5,0-19,0-28.5,0c-2.1,0-4.2,0.2-3.4-3.1c2.8-11.8,5.8-23.6,12.4-34
		c7.5-11.7,21.7-17.5,35.2-14.2c11.1,2.7,17.6,11.3,18.1,24.4C1488.7,364.3,1488.6,372.1,1487.7,379.9z"/>
	<path class="st1" d="M2171.5,355.7c-3.7-34.8-19.9-62.3-50.9-78.8c-40.7-21.7-83.6-22.2-126.2-6.4c-36.7,13.6-60.3,41.5-76.9,76
		c-5.1,10.7-8.5,22-12.1,33.2c-1.1,1.4-1.2,3.1-1.5,4.8c-0.5,1.4-1.1,2.8-1,4.3c-0.4,1.7-1,3.4-1.1,5.1c-1.3,2.9-0.6,6-1.2,9
		c-0.5,4.8-1.1,9.6-1.6,14.4c-2.6,26.7-2.9,53.3,3.5,79.5c9.6,38.8,31.9,66.5,70.6,79.4c24.8,8.3,50.4,9.3,76.1,6.3
		c26.9-3.1,51.3-12.7,71.4-31.5c23.1-21.6,33.4-49.1,36.8-79.8c0.4-3.2-1-3.5-3.6-3.5c-28.3,0.1-56.7,0.1-85,0c-3.1,0-4.1,0.7-4.5,4
		c-3,23-18.6,33.9-41.4,29.2c-11-2.3-17.3-8.5-19.4-19.5c-2.6-13.9,0.5-27.5,1.5-41.3c0.3-4.5,1.9-5.6,6.2-5.5
		c50.5,0.2,101,0.1,151.5,0.2c3.3,0,4.9-0.5,5.4-4.3C2170.8,405.5,2174.1,380.7,2171.5,355.7z M2079.1,379.6c-0.2,3-1.5,3.8-4.4,3.8
		c-9.5-0.2-19-0.1-28.5-0.1c-9.7,0-19.3-0.1-29,0c-2.7,0-3.8-0.2-3.1-3.5c2.5-11.1,5.4-22,11.3-31.8c7.7-12.9,20.1-18.6,34.8-16.2
		c10.6,1.8,17.7,9.5,19.1,21.4C2080.4,361.9,2079.6,370.7,2079.1,379.6z"/>
	<path class="st0" d="M2701,660.4c-0.1-8.8-1.6-17.6-6.1-25.5c-7.4-13.2-19.7-18.4-33.9-19.8c-18.5-1.9-34.6,2.7-46.7,17.8
		c-11.5,14.4-14.7,31.3-14.9,49.1c0,2.5-0.1,5,0,7.5c0.9,20,11.9,34.5,30.1,39.5c4,1.1,8.1,1.5,12.3,1.8c21,1.7,37.4-5.9,48.5-24
		C2699.2,692.6,2701.2,676.6,2701,660.4z M2660.5,663.3c-0.1,9.4-1.5,18.5-5.8,27c-1,1.9-2.1,3.8-3.7,5.3c-4,3.7-8.9,2.5-10.5-2.8
		c-2.3-7.6-0.7-15.2,0.4-22.7c0.9-5.9,2.7-11.7,5.9-16.8c2-3.2,4.5-6.1,8.9-4.8c4.1,1.2,4.7,4.8,4.9,8.4
		C2660.6,659,2660.5,661.2,2660.5,663.3z"/>
</g>
</svg>
