<svg xmlns="http://www.w3.org/2000/svg" xmlns:xlink="http://www.w3.org/1999/xlink" preserveAspectRatio="xMidYMid" viewBox="0 0 43 43">
  <defs>
    <style>
      .cls-1 {
        fill: #959595;
        fill-rule: evenodd;
      }
    </style>
  </defs>
  <path d="M21.505,43.007 C9.650,43.007 0.006,33.360 0.006,21.502 C0.006,9.643 9.650,-0.003 21.505,-0.003 C33.359,-0.003 43.003,9.643 43.003,21.502 C43.003,33.360 33.359,43.007 21.505,43.007 ZM21.505,1.638 C10.556,1.638 1.648,10.549 1.648,21.502 C1.648,32.454 10.556,41.365 21.505,41.365 C32.454,41.365 41.361,32.455 41.361,21.502 C41.361,10.549 32.454,1.638 21.505,1.638 ZM18.902,31.412 C18.569,31.719 18.050,31.700 17.741,31.366 C17.434,31.033 17.455,30.513 17.788,30.206 L27.210,21.502 L17.788,12.798 C17.455,12.490 17.434,11.971 17.741,11.637 C17.904,11.462 18.124,11.373 18.345,11.373 C18.544,11.373 18.744,11.445 18.902,11.592 L28.976,20.899 C29.145,21.054 29.241,21.273 29.241,21.502 C29.241,21.732 29.145,21.950 28.976,22.106 L18.902,31.412 Z" class="cls-1"/>
</svg>
