<svg xmlns="http://www.w3.org/2000/svg" xmlns:xlink="http://www.w3.org/1999/xlink" preserveAspectRatio="xMidYMid" viewBox="0 0 42.844 43">
  <defs>
    <style>
      .cls-1 {
        fill: #959595;
        fill-rule: evenodd;
      }
    </style>
  </defs>
  <path d="M21.417,43.003 C9.606,43.003 -0.003,33.357 -0.003,21.498 C-0.003,9.640 9.606,-0.007 21.417,-0.007 C33.229,-0.007 42.837,9.640 42.837,21.498 C42.837,33.357 33.229,43.003 21.417,43.003 ZM21.417,1.635 C10.508,1.635 1.633,10.545 1.633,21.498 C1.633,32.451 10.508,41.362 21.417,41.362 C32.327,41.362 41.202,32.451 41.202,21.498 C41.202,10.546 32.326,1.635 21.417,1.635 ZM25.167,31.363 C25.005,31.538 24.786,31.627 24.566,31.627 C24.367,31.627 24.168,31.555 24.011,31.408 L13.973,22.101 C13.805,21.946 13.709,21.727 13.709,21.498 C13.709,21.268 13.805,21.050 13.973,20.894 L24.011,11.588 C24.343,11.281 24.859,11.300 25.167,11.634 C25.473,11.967 25.452,12.487 25.121,12.794 L15.733,21.498 L25.121,30.202 C25.452,30.510 25.473,31.029 25.167,31.363 Z" class="cls-1"/>
</svg>
