<svg xmlns="http://www.w3.org/2000/svg" xmlns:xlink="http://www.w3.org/1999/xlink" preserveAspectRatio="xMidYMid" width="22.875" height="23.406" viewBox="0 0 22.875 23.406">
  <defs>
    <style>
      .cls-1 {
        fill: #373737;
        fill-rule: evenodd;
      }
    </style>
  </defs>
  <path d="M22.307,23.404 C22.622,23.404 22.878,23.151 22.878,22.839 C22.878,18.162 19.997,13.950 15.755,12.242 C17.297,10.972 18.282,9.059 18.282,6.922 C18.282,3.108 15.147,0.005 11.294,0.005 C7.441,0.005 4.307,3.108 4.307,6.922 C4.307,9.060 5.292,10.974 6.835,12.243 C2.704,13.923 -0.004,18.050 -0.004,22.839 C-0.004,23.151 0.252,23.404 0.566,23.404 C0.881,23.404 1.137,23.151 1.137,22.839 C1.137,18.235 3.890,14.314 8.005,13.023 C8.986,13.543 10.106,13.839 11.294,13.839 C12.483,13.839 13.602,13.543 14.583,13.023 C18.803,14.345 21.737,18.354 21.737,22.839 C21.737,23.151 21.992,23.404 22.307,23.404 ZM5.448,6.922 C5.448,3.731 8.070,1.134 11.294,1.134 C14.518,1.134 17.141,3.731 17.141,6.922 C17.141,10.113 14.518,12.709 11.294,12.709 C8.070,12.709 5.448,10.113 5.448,6.922 Z" class="cls-1"/>
</svg>
