<svg xmlns="http://www.w3.org/2000/svg" xmlns:xlink="http://www.w3.org/1999/xlink" preserveAspectRatio="xMidYMid" width="26" height="26" viewBox="0 0 26 26">
  <defs>
    <style>
      .cls-1 {
        fill: #fff;
        fill-rule: evenodd;
      }
    </style>
  </defs>
  <path d="M25.754,25.766 C25.599,25.921 25.395,25.999 25.191,25.999 C24.987,25.999 24.783,25.921 24.628,25.766 L15.608,16.743 C13.898,18.193 11.755,18.988 9.487,18.988 C6.952,18.988 4.568,18.000 2.776,16.207 C0.983,14.414 -0.004,12.030 -0.004,9.494 C-0.004,6.958 0.983,4.574 2.776,2.781 C4.568,0.987 6.952,-0.001 9.487,-0.001 C12.022,-0.001 14.406,0.987 16.198,2.781 C19.709,6.292 19.883,11.889 16.733,15.616 L25.754,24.640 C26.065,24.951 26.065,25.455 25.754,25.766 ZM15.073,3.907 C13.581,2.415 11.598,1.592 9.487,1.592 C7.377,1.592 5.393,2.415 3.901,3.907 C2.409,5.400 1.588,7.384 1.588,9.494 C1.588,11.604 2.410,13.588 3.901,15.082 C5.394,16.574 7.377,17.396 9.487,17.396 C11.597,17.396 13.581,16.574 15.073,15.082 C18.152,12.000 18.152,6.988 15.073,3.907 Z" class="cls-1"/>
</svg>
