
<svg version="1.1" id="Layer_1" xmlns="http://www.w3.org/2000/svg" xmlns:xlink="http://www.w3.org/1999/xlink" x="0px" y="0px"
	 viewBox="0 0 15 15" style="enable-background:new 0 0 15 15;" fill="#BCBCBC" xml:space="preserve">
	<path d="M15,8.4c0,0.2-0.2,0.4-0.4,0.4l-0.1,0c-0.7,0-1.3,0.4-1.5,1c-0.3,0.6-0.1,1.4,0.4,1.9c0.2,0.1,0.2,0.4,0,0.6
		c-0.4,0.4-0.8,0.8-1.2,1.2c-0.2,0.1-0.4,0.1-0.6,0c-0.4-0.5-1.2-0.7-1.9-0.4c-0.6,0.3-1.1,0.9-1,1.6c0,0.2-0.2,0.4-0.4,0.4
		c-0.3,0-0.5,0-0.8,0c-0.3,0-0.6,0-0.9-0.1c-0.2,0-0.4-0.2-0.4-0.4c0-0.7-0.4-1.4-1-1.6c-0.6-0.3-1.4-0.1-1.9,0.4
		c-0.1,0.2-0.4,0.2-0.6,0C2.4,13,2,12.6,1.6,12.2c-0.1-0.2-0.1-0.4,0-0.6c0.5-0.5,0.7-1.2,0.4-1.9c-0.3-0.6-0.9-1-1.5-1
		C0.3,8.7,0.1,8.5,0,8.3C0,7.8,0,7.2,0.1,6.6c0-0.2,0.2-0.4,0.4-0.4c0.7,0,1.4-0.4,1.6-1c0.3-0.6,0.1-1.4-0.4-1.9
		C1.5,3.2,1.5,3,1.7,2.8C2,2.4,2.4,2,2.9,1.6c0.2-0.1,0.4-0.1,0.6,0c0.4,0.5,1.2,0.7,1.9,0.4c0.6-0.3,1.1-0.9,1-1.6
		c0-0.2,0.2-0.4,0.4-0.4C7.3,0,7.8,0,8.4,0.1c0.2,0,0.4,0.2,0.4,0.4c0,0.7,0.4,1.4,1,1.6c0.6,0.3,1.4,0.1,1.9-0.4
		c0.1-0.2,0.4-0.2,0.6,0C12.6,2,13,2.4,13.4,2.9c0.1,0.2,0.1,0.4,0,0.6c-0.5,0.5-0.7,1.2-0.4,1.9c0.3,0.6,0.9,1,1.6,1
		c0.2,0,0.5,0.2,0.5,0.4C15,7.2,15,7.8,15,8.4z M7.5,5C6.1,5,5,6.1,5,7.5S6.1,10,7.5,10C8.9,10,10,8.9,10,7.5S8.9,5,7.5,5z"/>
</svg>
