<svg xmlns="http://www.w3.org/2000/svg" xmlns:xlink="http://www.w3.org/1999/xlink" preserveAspectRatio="xMidYMid" width="23.625" height="24" viewBox="0 0 23.625 24">
  <defs>
    <style>
      .cls-1 {
        fill: #fff;
        fill-rule: evenodd;
      }
    </style>
  </defs>
  <path d="M11.805,23.998 C5.277,23.998 -0.015,18.626 -0.015,11.999 C-0.015,5.371 5.277,-0.002 11.805,-0.002 C18.333,-0.002 23.625,5.371 23.625,11.999 C23.625,18.626 18.333,23.998 11.805,23.998 ZM11.805,1.090 C5.871,1.090 1.060,5.973 1.060,11.999 C1.060,18.024 5.871,22.908 11.805,22.908 C17.740,22.908 22.550,18.024 22.550,11.999 C22.550,5.973 17.740,1.090 11.805,1.090 ZM12.894,15.634 C12.019,15.634 11.197,15.143 10.915,14.587 C10.915,14.587 10.446,16.520 10.346,16.893 C10.178,17.524 9.855,18.153 9.554,18.652 C9.126,19.219 8.633,18.798 8.574,18.281 C8.555,17.705 8.576,17.023 8.717,16.403 C8.872,15.722 9.758,11.830 9.758,11.830 C9.758,11.830 9.499,11.295 9.499,10.503 C9.499,9.259 10.194,8.330 11.061,8.330 C11.796,8.330 12.152,8.905 12.152,9.591 C12.152,10.358 11.681,11.506 11.438,12.568 C11.235,13.458 11.867,14.184 12.715,14.184 C14.250,14.184 15.282,12.142 15.282,9.723 C15.282,7.885 14.087,6.507 11.914,6.507 C9.458,6.507 7.928,8.406 7.928,10.526 C7.928,11.256 8.136,11.771 8.462,12.172 C8.612,12.357 8.633,12.429 8.578,12.639 C8.540,12.794 8.450,13.166 8.414,13.313 C8.360,13.525 8.194,13.601 8.009,13.523 C6.877,13.045 6.351,11.761 6.351,10.317 C6.351,7.934 8.289,5.075 12.136,5.075 C15.226,5.075 17.260,7.394 17.260,9.882 C17.260,13.173 15.495,15.632 12.894,15.634 Z" class="cls-1"/>
</svg>
