<svg xmlns="http://www.w3.org/2000/svg" xmlns:xlink="http://www.w3.org/1999/xlink" preserveAspectRatio="xMidYMid" width="23" height="23.375" viewBox="0 0 23 23.375">
  <defs>
    <style>
      .cls-1 {
        fill: #fff;
        fill-rule: evenodd;
      }
    </style>
  </defs>
  <path d="M11.501,23.373 C5.145,23.373 -0.008,18.142 -0.008,11.690 C-0.008,5.236 5.145,0.005 11.501,0.005 C17.857,0.005 23.010,5.236 23.010,11.690 C23.010,18.142 17.857,23.373 11.501,23.373 ZM11.501,1.067 C5.722,1.067 1.038,5.822 1.038,11.690 C1.038,17.556 5.722,22.312 11.501,22.312 C17.279,22.312 21.963,17.556 21.963,11.690 C21.963,5.822 17.279,1.067 11.501,1.067 ZM16.429,9.016 C16.434,9.131 16.436,9.248 16.436,9.366 C16.436,12.951 13.879,17.083 9.203,17.082 C7.767,17.082 6.431,16.625 5.305,15.842 C5.504,15.867 5.707,15.881 5.912,15.881 C7.102,15.884 8.199,15.446 9.069,14.713 C7.957,14.686 7.018,13.887 6.694,12.792 C6.849,12.826 7.008,12.844 7.173,12.845 C7.404,12.846 7.629,12.814 7.842,12.752 C6.679,12.491 5.802,11.372 5.802,10.036 C5.802,10.024 5.802,10.012 5.802,10.000 C6.145,10.211 6.536,10.339 6.954,10.358 C6.272,9.857 5.823,9.007 5.823,8.051 C5.823,7.545 5.948,7.074 6.167,6.670 C7.420,8.355 9.294,9.473 11.409,9.610 C11.365,9.409 11.343,9.201 11.343,8.987 C11.343,7.478 12.481,6.273 13.885,6.296 C14.617,6.309 15.278,6.650 15.741,7.186 C16.320,7.073 16.864,6.856 17.356,6.553 C17.165,7.183 16.762,7.708 16.237,8.036 C16.752,7.978 17.242,7.839 17.698,7.630 C17.357,8.169 16.926,8.639 16.429,9.016 Z" class="cls-1"/>
</svg>
