<svg xmlns="http://www.w3.org/2000/svg" xmlns:xlink="http://www.w3.org/1999/xlink" preserveAspectRatio="xMidYMid" width="23.031" height="23.375" viewBox="0 0 23.031 23.375">
  <defs>
    <style>
      .cls-1 {
        fill: #fff;
        fill-rule: evenodd;
      }
    </style>
  </defs>
  <path d="M11.509,23.373 C5.153,23.373 -0.000,18.142 -0.000,11.690 C-0.000,5.236 5.153,0.005 11.509,0.005 C17.865,0.005 23.017,5.236 23.017,11.690 C23.017,18.142 17.865,23.373 11.509,23.373 ZM11.509,1.067 C5.730,1.067 1.046,5.822 1.046,11.690 C1.046,17.556 5.730,22.312 11.509,22.312 C17.287,22.312 21.971,17.556 21.971,11.690 C21.971,5.822 17.287,1.067 11.509,1.067 ZM11.950,8.334 L11.950,9.455 L14.488,9.455 L14.142,11.690 L11.950,11.690 L11.950,18.433 L9.768,18.433 L9.768,11.690 L8.418,11.690 L8.418,9.453 L9.768,9.453 L9.768,8.101 C9.768,6.278 10.304,4.963 12.271,4.963 L14.611,4.963 L14.611,7.194 L12.963,7.194 C12.138,7.194 11.950,7.750 11.950,8.334 Z" class="cls-1"/>
</svg>
