<?xml version="1.0" standalone="no"?>
<!DOCTYPE svg PUBLIC "-//W3C//DTD SVG 20010904//EN"
 "http://www.w3.org/TR/2001/REC-SVG-20010904/DTD/svg10.dtd">
<svg version="1.0" xmlns="http://www.w3.org/2000/svg"
 width="238.000000pt" height="250.000000pt" viewBox="0 0 238.000000 250.000000"
 preserveAspectRatio="xMidYMid meet">

<g transform="translate(0.000000,250.000000) scale(0.100000,-0.100000)"
fill="#000000" stroke="none">
<path d="M1075 2070 c4 -7 2 -16 -6 -21 -11 -7 -10 -9 4 -9 19 0 23 25 5 36
-7 5 -8 3 -3 -6z"/>
<path d="M1326 2027 c3 -10 9 -15 12 -12 3 3 0 11 -7 18 -10 9 -11 8 -5 -6z"/>
<path d="M1696 2004 c-4 -10 -13 -14 -26 -11 -11 3 -18 1 -14 -4 3 -5 11 -9
18 -9 15 0 41 28 34 36 -3 3 -8 -3 -12 -12z"/>
<path d="M1242 1964 c-7 -8 -8 -14 -3 -14 10 0 25 19 20 25 -2 1 -10 -3 -17
-11z"/>
<path d="M1520 1880 c0 -11 18 -23 85 -60 108 -58 169 -135 206 -259 11 -38
11 -44 -4 -53 -9 -5 -17 -19 -17 -31 0 -13 -7 -34 -16 -47 -15 -25 -15 -25 3
-5 21 24 68 34 61 13 -3 -7 -13 -13 -23 -13 -22 0 -64 -57 -72 -98 -3 -15 -10
-30 -15 -33 -8 -5 -5 19 9 71 5 17 4 18 -11 6 -9 -7 -16 -22 -16 -33 0 -10 -9
-37 -20 -58 -20 -40 -28 -43 -91 -44 -10 0 -15 -5 -12 -13 3 -7 17 -13 31 -13
l26 0 -29 -30 c-16 -16 -30 -28 -32 -26 -3 2 -16 -7 -30 -20 -14 -13 -32 -24
-40 -24 -8 0 -55 -22 -106 -48 l-92 -49 75 4 c174 9 260 39 359 128 34 30 66
55 71 55 18 0 25 2 44 12 14 7 17 7 11 -2 -6 -9 -2 -9 14 0 18 9 26 9 39 -2
11 -9 14 -10 8 0 -4 6 -2 12 3 12 17 0 13 -12 -14 -52 -39 -58 -27 -84 14 -31
34 42 54 127 49 202 -5 63 -34 141 -59 156 -6 4 -4 -7 5 -23 20 -38 20 -53 2
-46 -16 6 -70 129 -63 141 3 5 -3 20 -14 33 -27 36 -24 6 6 -58 19 -42 23 -62
18 -97 -5 -41 -4 -44 21 -51 27 -6 27 -7 6 -21 -11 -8 -20 -21 -20 -29 0 -17
-16 -19 -26 -3 -15 25 -22 82 -12 109 8 23 4 43 -17 102 -14 40 -28 87 -29
103 -5 50 -35 95 -67 102 -16 3 -34 14 -39 24 -10 19 -180 112 -180 99z m320
-400 c0 -13 -7 -20 -20 -20 -19 0 -27 20 -13 33 13 14 33 6 33 -13z m-20 -74
c0 -8 -11 -28 -25 -43 l-25 -28 18 42 c17 43 32 56 32 29z m142 -72 c9 -20 9
-30 0 -45 -7 -11 -8 -19 -2 -19 12 0 13 -10 1 -29 -8 -12 -12 -12 -25 -2 -9 7
-14 17 -11 21 3 4 -2 13 -10 20 -15 13 -21 61 -8 73 15 15 44 5 55 -19z m-198
-142 c19 10 20 10 7 -6 -24 -29 -86 -55 -148 -62 l-58 -6 28 27 c17 16 36 25
51 23 13 -1 31 4 42 12 16 13 17 13 10 0 -6 -10 -3 -10 10 2 11 11 22 14 28 8
6 -6 17 -5 30 2z m-224 -105 c0 -20 -21 -37 -46 -37 -30 0 -36 22 -10 37 28
16 56 16 56 0z"/>
<path d="M1716 1826 c18 -8 37 -22 43 -33 8 -14 10 -15 11 -3 0 17 -49 50 -72
50 -7 -1 1 -7 18 -14z"/>
<path d="M1258 1793 c7 -3 16 -2 19 1 4 3 -2 6 -13 5 -11 0 -14 -3 -6 -6z"/>
<path d="M1810 1730 c-9 -6 -10 -10 -3 -10 6 0 15 5 18 10 8 12 4 12 -15 0z"/>
<path d="M1548 1713 c6 -2 18 -2 25 0 6 3 1 5 -13 5 -14 0 -19 -2 -12 -5z"/>
<path d="M1703 1713 c9 -2 17 -8 17 -13 0 -5 -8 -14 -17 -19 -10 -6 -13 -10
-8 -11 6 0 16 4 24 9 18 12 6 41 -16 40 -17 -1 -17 -2 0 -6z"/>
<path d="M1852 1661 c18 -24 41 -53 51 -65 17 -19 17 -19 8 -1 -5 11 -29 40
-51 65 l-42 45 34 -44z"/>
<path d="M1520 1662 c0 -16 37 -34 63 -30 13 2 23 11 25 23 2 18 2 18 -8 3
-14 -23 -38 -23 -62 -1 -10 9 -18 11 -18 5z"/>
<path d="M1340 1646 c0 -8 5 -18 12 -22 7 -5 8 -3 3 6 -4 7 -2 16 6 21 11 7
10 9 -3 9 -10 0 -18 -6 -18 -14z"/>
<path d="M1439 1626 c19 -20 30 -36 24 -36 -6 0 -16 7 -23 15 -7 8 -26 14 -44
14 l-31 -2 30 -4 c49 -8 55 -19 54 -94 -2 -79 3 -87 78 -135 54 -35 92 -83 94
-119 0 -14 2 -16 6 -5 3 8 12 19 19 23 17 10 18 59 2 75 -9 9 -5 12 18 13 l29
1 -31 7 c-62 15 -122 52 -163 101 -42 50 -49 79 -22 88 10 3 13 -2 9 -22 -3
-14 -1 -26 3 -26 5 0 9 13 9 29 0 32 -38 84 -74 102 -14 8 -10 0 13 -25z"/>
<path d="M850 1340 c0 -5 4 -10 8 -10 5 0 17 -7 28 -15 16 -13 13 -13 -17 1
l-35 16 -34 -33 c-19 -19 -35 -40 -36 -47 -2 -8 -6 -17 -10 -20 -4 -4 -4 1 -1
11 11 30 -8 19 -63 -35 -96 -96 -129 -177 -115 -286 6 -52 12 -62 59 -108 60
-58 164 -114 214 -114 29 0 43 -10 94 -63 35 -37 68 -62 81 -63 12 -1 36 -4
52 -9 25 -6 22 -1 -23 29 -65 46 -105 104 -108 159 -2 31 0 37 8 24 8 -15 79
-67 91 -67 2 0 4 7 4 15 0 8 -4 12 -8 10 -3 -3 -9 4 -12 15 -3 11 -1 22 4 25
4 3 0 20 -10 38 -18 32 -19 40 -23 97 -1 16 -6 26 -11 23 -6 -4 -8 3 -5 15 4
12 2 22 -4 22 -6 0 -8 9 -5 19 3 11 -1 28 -8 38 -12 18 -26 63 -30 96 -1 9
-13 29 -26 45 l-24 27 24 -20 c29 -25 64 -92 55 -107 -4 -6 -3 -8 3 -5 5 3 21
-17 34 -46 33 -71 167 -205 241 -241 84 -41 105 -29 30 17 -34 21 -70 51 -82
66 -30 43 -6 82 29 49 7 -7 -47 48 -120 123 -74 75 -146 144 -160 153 -30 19
-47 69 -21 58 11 -4 13 -1 7 9 -5 8 -5 11 1 6 5 -5 9 -12 9 -16 0 -4 27 -37
59 -74 60 -67 114 -110 164 -127 l27 -10 -30 22 c-16 12 -53 45 -80 73 -28 27
-68 63 -89 78 -24 19 -35 34 -32 44 6 14 -10 38 -27 41 -4 1 -19 15 -33 32
-26 30 -44 39 -44 20z m-93 -222 c-3 -8 -6 -5 -6 6 -1 11 2 17 5 13 3 -3 4
-12 1 -19z m323 -91 c30 -36 63 -69 73 -72 21 -8 23 -35 1 -35 -47 0 -143 103
-175 187 l-9 24 27 -19 c16 -11 53 -50 83 -85z m-313 31 c-3 -8 -6 -5 -6 6 -1
11 2 17 5 13 3 -3 4 -12 1 -19z m143 -243 c13 -14 21 -25 18 -25 -2 0 -15 11
-28 25 -13 14 -21 25 -18 25 2 0 15 -11 28 -25z m-125 -28 c15 -2 44 -19 62
-38 l34 -34 -30 -3 c-17 -2 -50 5 -73 16 -51 23 -128 78 -128 91 0 5 24 1 53
-9 29 -10 66 -21 82 -23z"/>
<path d="M1454 1283 c1 -12 -10 -22 -34 -30 -33 -12 -32 -12 35 -10 40 1 69 6
68 12 -1 6 -10 12 -20 14 -10 1 -25 10 -34 18 -15 13 -17 12 -15 -4z m49 -30
c-7 -2 -19 -2 -25 0 -7 3 -2 5 12 5 14 0 19 -2 13 -5z"/>
<path d="M1019 1217 c8 -10 28 -24 45 -32 18 -9 50 -33 71 -55 22 -22 45 -39
52 -40 18 0 26 -19 14 -34 -9 -10 -8 -15 5 -20 29 -11 50 -6 85 20 51 39 159
86 186 81 19 -3 21 -2 12 9 -7 9 -31 14 -63 13 -37 -1 -44 -3 -26 -8 22 -6 17
-11 -53 -49 -88 -47 -87 -47 -87 -29 0 20 33 47 77 63 22 7 30 13 18 13 -11 1
-42 -13 -70 -29 -27 -16 -56 -30 -63 -30 -7 0 -44 24 -81 53 -86 64 -143 99
-122 74z"/>
<path d="M1097 1120 c29 -28 57 -48 63 -45 15 9 2 25 -20 25 -11 0 -27 11 -36
25 -9 14 -26 30 -38 36 -12 6 3 -13 31 -41z"/>
<path d="M1200 876 c40 -44 200 -114 200 -88 0 14 -28 42 -42 42 -6 0 -34 14
-62 30 l-51 31 34 -32 c30 -28 31 -30 10 -24 -13 3 -44 20 -69 37 -44 30 -44
30 -20 4z"/>
<path d="M1100 830 c11 -11 26 -20 33 -20 6 0 1 9 -13 20 -33 26 -46 26 -20 0z"/>
<path d="M1670 824 c-36 -13 -79 -24 -96 -24 -24 0 -31 -4 -30 -17 1 -12 -9
-19 -29 -24 -25 -5 -27 -7 -12 -14 12 -5 27 -1 45 12 15 10 62 32 105 47 42
15 80 32 83 37 3 5 4 9 2 8 -2 -1 -32 -12 -68 -25z"/>
<path d="M1062 825 c-1 -11 5 -29 13 -39 13 -17 15 -18 15 -3 0 9 -4 17 -9 17
-5 0 -12 10 -14 23 -4 19 -4 19 -5 2z"/>
<path d="M1435 820 c3 -5 12 -7 20 -3 21 7 19 13 -6 13 -11 0 -18 -4 -14 -10z"/>
<path d="M1410 776 c0 -2 9 -6 20 -9 11 -3 18 -1 14 4 -5 9 -34 13 -34 5z"/>
<path d="M1100 751 c0 -16 45 -35 64 -28 26 10 18 28 -9 21 -15 -4 -32 -1 -40
6 -11 9 -15 9 -15 1z"/>
<path d="M1020 561 c0 -5 7 -11 14 -14 10 -4 13 -1 9 9 -6 15 -23 19 -23 5z"/>
</g>
</svg>
